<svg width="517" height="198" viewBox="0 0 517 198" fill="none" xmlns="http://www.w3.org/2000/svg">
<path d="M142.564 85.6678C142.307 84.9175 141.875 84.2391 141.304 83.6891C141.093 83.4935 140.864 83.3174 140.622 83.163C138.686 81.8735 135.795 81.5845 133.956 83.163C133.771 83.3235 133.6 83.4995 133.444 83.6891C132.896 84.3635 132.332 85.0231 131.754 85.6678C130.805 86.7498 129.834 87.7947 128.818 88.8099C128.529 89.0915 128.239 89.3806 127.943 89.6622C127.772 89.8326 127.602 89.9956 127.431 90.1587C126.779 90.7812 126.111 91.3814 125.437 91.9743C125.081 92.2929 124.725 92.6042 124.362 92.908C123.82 93.3601 123.279 93.8121 122.73 94.2494C122.679 94.2864 122.627 94.3235 122.575 94.3679C122.56 94.3754 122.553 94.3902 122.538 94.3976C122.53 94.3976 122.523 94.3976 122.515 94.4124C122.495 94.4203 122.478 94.4331 122.464 94.4495C122.3 94.5606 122.189 94.6347 122.108 94.7014C122.137 94.6866 122.167 94.6644 122.197 94.6495C122.063 94.7533 121.922 94.857 121.789 94.9608C120.491 95.9168 119.164 96.8357 117.807 97.6953C114.45 99.8428 110.924 101.714 107.264 103.29C107.019 103.387 106.767 103.491 106.515 103.587C96.9315 107.511 86.5357 109.042 76.227 108.048C75.1741 107.967 74.1212 107.855 73.0684 107.715C71.8524 107.537 70.6439 107.322 69.4427 107.077C64.8699 106.165 60.3956 104.815 56.0818 103.046C50.6857 100.576 45.5535 97.5668 40.7636 94.0641C40.0221 93.5379 39.2732 93.0118 38.5244 92.5005C39.377 90.4106 40.2149 88.3208 41.0305 86.2162C41.4383 85.2009 41.8312 84.1857 42.2168 83.163C45.2493 75.2854 48.0965 67.3337 50.825 59.3524C53.5832 51.2674 56.1856 43.1354 58.6324 34.9564C58.8845 34.1264 59.1292 33.2964 59.3665 32.4665C60.6492 28.146 61.88 23.8157 63.0589 19.4755C63.1701 19.0531 63.2887 18.6381 63.3925 18.2157C63.7335 16.9707 64.0672 15.7257 64.3935 14.4807C65.1349 11.6721 63.4592 8.31501 60.5083 7.64064C57.5551 6.88384 54.5328 8.60065 53.6721 11.5238C53.3533 12.7244 53.0345 13.9175 52.7083 15.118C51.1438 20.9206 49.4978 26.7034 47.7702 32.4665C47.5181 33.2964 47.266 34.1264 47.014 34.9564C43.2029 47.5102 39.0187 59.9379 34.4613 72.2396C33.9126 73.7292 33.3565 75.2138 32.793 76.6934C32.5187 77.4197 32.2443 78.1459 31.9626 78.8722C31.4213 80.3025 30.8652 81.7327 30.3092 83.163C29.9903 84.0004 29.6641 84.8378 29.3379 85.6678C29.1228 86.194 28.9152 86.7201 28.7076 87.2389C26.5936 86.4802 24.4034 85.9534 22.1755 85.6678L21.8196 85.6233C20.0923 85.4156 18.3455 85.4306 16.6221 85.6678C11.4002 86.2768 6.7179 89.1705 3.83951 93.5676C0.302812 99.133 0.347299 107.092 5.30758 111.82C10.4161 116.689 18.1494 116.652 24.1626 113.606C27.3491 111.883 30.036 109.366 31.9626 106.299C32.7007 105.187 33.3788 104.037 33.9941 102.853C34.1498 102.957 34.3056 103.061 34.4613 103.172C35.0544 103.587 35.6476 104.009 36.2333 104.424C39.6462 106.896 43.2428 109.103 46.9917 111.027C55.0527 115.033 63.7298 117.655 72.6606 118.786C72.8608 118.808 73.0536 118.838 73.2538 118.86C74.2399 118.986 75.2334 119.083 76.227 119.164C90.4791 120.238 104.749 117.323 117.437 110.746C118.512 110.19 119.577 109.607 120.632 108.997C122.271 108.048 123.872 107.04 125.437 105.973C126.289 105.395 127.12 104.81 127.943 104.195C131.539 101.547 134.892 98.5832 137.96 95.3387C139.124 94.116 140.238 92.8537 141.304 91.5518C142.311 90.4869 142.892 89.0891 142.935 87.6242C142.929 86.9552 142.804 86.2926 142.564 85.6678ZM19.788 103.32C19.9437 103.209 20.0994 103.09 20.2477 102.972C20.2033 103.083 19.9882 103.209 19.788 103.32ZM22.1681 100.926C21.9975 101.119 21.8418 101.312 21.6713 101.504C21.1525 102.085 20.5952 102.629 20.003 103.135C19.9215 103.209 19.8325 103.283 19.7435 103.35C19.7416 103.35 19.7396 103.35 19.7382 103.352C19.7368 103.353 19.7361 103.355 19.7361 103.357C19.629 103.405 19.525 103.459 19.4247 103.52C19.1059 103.713 18.7796 103.891 18.446 104.054C17.7927 104.294 17.1207 104.48 16.4367 104.61C15.9111 104.648 15.3836 104.653 14.8574 104.624H14.8426C14.4794 104.544 14.1206 104.445 13.7675 104.328C13.5895 104.239 13.419 104.135 13.2485 104.031C13.1817 103.972 13.1224 103.913 13.0854 103.876C13.0129 103.81 12.946 103.738 12.8852 103.661C12.8852 103.659 12.8845 103.657 12.8831 103.656C12.8817 103.654 12.8798 103.653 12.8778 103.654C12.7962 103.505 12.7072 103.357 12.6257 103.209C12.6215 103.205 12.6188 103.2 12.6183 103.194C12.559 103.009 12.5071 102.816 12.4626 102.623C12.4465 102.285 12.449 101.946 12.47 101.608C12.5695 101.135 12.7033 100.669 12.8704 100.215C13.0205 99.893 13.1914 99.5811 13.382 99.2812C13.3968 99.2516 13.4709 99.133 13.5525 98.9996C13.5599 98.9922 13.5599 98.9922 13.5599 98.9848C13.6711 98.8588 13.7824 98.7254 13.901 98.6069C14.1012 98.3845 14.3162 98.1919 14.5312 97.9918C14.9494 97.7182 15.3826 97.4683 15.8287 97.2433C16.5366 96.992 17.2629 96.7962 18.0012 96.6579C19.0899 96.5714 20.184 96.5813 21.271 96.6875C22.3005 96.866 23.3162 97.1161 24.3109 97.436C23.7081 98.6053 23.0217 99.7297 22.2571 100.8C22.2274 100.845 22.1978 100.889 22.1681 100.926ZM13.9232 98.4883C13.8579 98.5931 13.7807 98.69 13.6933 98.7773C13.7522 98.6681 13.83 98.5702 13.9232 98.4883Z" fill="#3F3D56"/>
<path d="M120.276 9.98243C120.21 12.3094 120.143 14.6363 120.076 16.9633C119.935 22.1285 119.789 27.2963 119.639 32.4665C119.483 38.2839 119.32 44.0988 119.149 49.9112C119.068 52.9126 118.984 55.9139 118.897 58.9152C118.667 67.0003 118.44 75.0829 118.215 83.163C118.193 84.0004 118.163 84.8304 118.141 85.6678C118.03 89.677 117.918 93.6862 117.807 97.6954C117.681 102.045 117.558 106.396 117.437 110.746C117.348 114.006 117.256 117.269 117.162 120.535C116.495 144.197 115.828 167.86 115.16 191.522C115.102 194.567 112.646 197.022 109.599 197.08C106.539 197.055 104.063 194.581 104.039 191.522C104.409 178.213 104.785 164.903 105.166 151.593C105.499 139.558 105.838 127.523 106.181 115.488C106.293 111.524 106.404 107.557 106.515 103.587C106.686 97.6138 106.854 91.6408 107.019 85.6678C107.041 84.8304 107.071 84.0004 107.093 83.163C107.108 82.4293 107.13 81.7031 107.153 80.9694C107.479 69.3717 107.805 57.7715 108.131 46.1688C108.265 41.6038 108.393 37.0364 108.517 32.4665C108.665 27.2567 108.813 22.0495 108.962 16.8447C109.029 14.5548 109.088 12.2723 109.155 9.98243C109.213 6.9374 111.669 4.48295 114.715 4.42441C117.776 4.44906 120.252 6.92308 120.276 9.98243Z" fill="#3F3D56"/>
<path d="M425.328 11.5247C419.497 33.5935 412.528 55.3461 404.448 76.6953C402.219 82.5841 399.938 88.4612 397.5 94.2674L398.06 92.9397C396.972 95.7053 395.582 98.3425 393.916 100.804C393.803 100.962 393.687 101.12 393.57 101.275C394.146 100.539 394.256 100.394 393.898 100.839C393.71 101.062 393.524 101.285 393.329 101.503C392.81 102.083 392.253 102.629 391.662 103.135C391.513 103.263 391.362 103.387 391.208 103.509L391.903 102.969C391.823 103.159 391.256 103.411 391.08 103.519C390.509 103.864 389.913 104.166 389.297 104.422L390.625 103.862C389.616 104.268 388.563 104.557 387.488 104.722L388.966 104.524C387.91 104.669 386.839 104.681 385.78 104.558L387.258 104.756C386.391 104.637 385.543 104.409 384.733 104.077L386.062 104.637C385.63 104.449 385.214 104.227 384.817 103.973C384.616 103.842 383.998 103.374 384.806 103.991C385.646 104.633 384.914 104.046 384.741 103.876C384.597 103.734 384.467 103.579 384.326 103.435C383.672 102.764 385.065 104.588 384.62 103.804C384.383 103.411 384.165 103.006 383.969 102.591L384.53 103.919C384.275 103.287 384.093 102.628 383.99 101.954L384.189 103.432C384.082 102.594 384.082 101.746 384.186 100.908L383.988 102.386C384.124 101.451 384.371 100.535 384.725 99.6586L384.165 100.986C384.411 100.397 384.703 99.8274 385.038 99.283C385.192 99.0016 385.373 98.7357 385.578 98.489C385.615 98.5008 384.638 99.6101 385.156 99.05C385.292 98.9035 385.418 98.7492 385.556 98.6039C385.775 98.3713 386.011 98.1586 386.242 97.9384C387.016 97.2015 385.158 98.6543 386.052 98.0711C386.7 97.6455 387.381 97.2739 388.09 96.9601L386.762 97.5204C387.949 97.0331 389.194 96.6994 390.465 96.5275L388.987 96.726C390.58 96.5429 392.189 96.5619 393.777 96.7827L392.299 96.5842C394.31 96.8889 396.275 97.4415 398.15 98.2293L396.822 97.669C400.818 99.3837 404.357 101.93 407.89 104.426C411.303 106.896 414.898 109.102 418.646 111.026C426.707 115.033 435.385 117.656 444.316 118.788C470.345 121.975 496.208 111.714 512.964 91.5524C513.97 90.4859 514.549 89.0874 514.592 87.6223C514.582 86.1503 513.998 84.7405 512.964 83.6922C510.924 81.8203 507.07 81.2919 505.1 83.6922C503.232 85.9707 501.225 88.1306 499.089 90.1594C498.092 91.105 497.068 92.0214 496.018 92.9087C495.418 93.4155 494.809 93.9123 494.193 94.3991C493.901 94.6294 492.993 95.2425 494.388 94.2528C494.068 94.4797 493.762 94.7273 493.446 94.9604C488.776 98.4009 483.716 101.278 478.371 103.531L479.699 102.97C473.963 105.375 467.939 107.025 461.777 107.878L463.256 107.68C456.917 108.513 450.497 108.503 444.161 107.651L445.639 107.85C439.305 106.98 433.11 105.294 427.209 102.833L428.537 103.393C422.843 100.875 417.439 97.7461 412.421 94.062C409.809 92.129 407.055 90.3964 404.181 88.8789C400.834 87.17 397.209 86.0689 393.476 85.6267C386.478 84.8035 379.347 87.528 375.499 93.5712C371.958 99.1328 372.004 107.091 376.962 111.82C382.069 116.691 389.803 116.65 395.822 113.603C401.618 110.669 405.099 104.573 407.548 98.8246C413.057 85.8892 417.935 72.6548 422.48 59.3531C426.977 46.1931 431.054 32.9 434.713 19.4737C435.166 17.8108 435.613 16.1462 436.053 14.4799C436.795 11.6722 435.118 8.31418 432.169 7.64286C429.215 6.88275 426.189 8.5996 425.328 11.5247Z" fill="#3F3D56"/>
<path d="M480.813 9.98209L478.811 80.9714L476.82 151.591L475.694 191.522C475.72 194.581 478.195 197.054 481.255 197.08C484.301 197.022 486.757 194.567 486.816 191.522L488.817 120.533L490.809 49.9136L491.934 9.98209C491.908 6.92333 489.434 4.4501 486.374 4.42407C483.327 4.48292 480.872 6.93719 480.813 9.98209Z" fill="#3F3D56"/>
<path d="M277.789 148.14C275.615 157.832 270.408 166.58 262.923 173.114C262.375 173.588 261.826 174.048 261.255 174.5C259.869 174.626 258.492 174.754 257.125 174.885C255.991 174.989 254.871 175.1 253.759 175.204L253.559 175.226L253.418 174.011L252.854 169.09C248.426 161.864 247.526 153.018 250.408 145.05C252.365 139.773 255.909 135.112 259.394 130.488C264.206 124.1 268.884 117.786 269.055 109.997C271.423 113.026 273.391 116.346 274.912 119.876C273.477 120.551 272.188 121.5 271.116 122.669C270.812 123.003 270.508 123.47 270.716 123.87C270.894 124.211 271.339 124.292 271.724 124.337C272.651 124.433 273.585 124.529 274.512 124.626C275.253 124.707 275.995 124.781 276.736 124.863C277.633 127.806 278.242 130.829 278.553 133.889C279.053 138.65 278.795 143.46 277.789 148.14Z" fill="#3F3D56"/>
<path d="M302.405 128.716C298.031 131.896 295.473 136.468 293.486 141.507C291.449 142.159 289.617 143.328 288.17 144.901C287.866 145.235 287.562 145.702 287.769 146.102C287.947 146.443 288.392 146.524 288.778 146.569C289.704 146.665 290.639 146.761 291.565 146.858C289.578 152.816 287.754 158.982 284.24 164.014C281.903 167.336 278.856 170.097 275.32 172.099C274.356 172.648 273.361 173.14 272.34 173.573C268.573 173.862 264.878 174.171 261.255 174.5C259.868 174.626 258.492 174.754 257.125 174.885C255.991 174.989 254.871 175.1 253.759 175.204C253.752 174.796 253.752 174.389 253.759 173.981C253.994 163.123 257.99 152.683 265.066 144.442C265.4 144.057 265.741 143.679 266.089 143.301C269.674 139.474 273.89 136.29 278.553 133.889C285.9 130.071 294.135 128.285 302.405 128.716Z" fill="#FCA311"/>
<path d="M258.408 171.083L257.555 173.603L257.125 174.885C255.991 174.989 254.871 175.1 253.759 175.204L253.559 175.226C252.328 175.352 251.105 175.478 249.881 175.604C249.562 175.233 249.244 174.855 248.932 174.47C232.821 154.97 235.495 126.125 254.916 109.916C253.937 115.036 255.079 119.942 256.955 124.811C256.754 124.893 256.562 124.974 256.376 125.063C254.941 125.738 253.651 126.687 252.58 127.857C252.276 128.19 251.972 128.657 252.18 129.057C252.358 129.398 252.803 129.48 253.188 129.524C254.115 129.621 255.049 129.717 255.976 129.813C256.717 129.895 257.459 129.969 258.2 130.05C258.549 130.087 258.897 130.124 259.246 130.162C259.298 130.273 259.342 130.376 259.394 130.488C261.507 135.067 263.783 139.669 265.066 144.442C265.388 145.639 265.64 146.854 265.822 148.081C266.979 156.476 264.25 164.942 258.408 171.083Z" fill="#FCA311"/>
<path d="M333.041 63.5992C326.658 51.155 316.769 40.6847 305.138 32.9904C293.47 25.3067 280.082 20.6274 266.166 19.3696C264.342 19.2039 262.513 19.1069 260.68 19.0784C258.514 19.0461 225.931 28.4395 215.016 36.1098C204.107 43.6866 195.134 53.7207 188.819 65.4021C182.515 77.1474 179.415 90.3439 179.828 103.666C180.369 117.068 184.106 130.147 190.73 141.813C197.263 153.441 206.539 163.298 217.751 170.526C229.123 177.779 240.547 197.009 253.974 197.688C267.502 198.372 282.931 180.232 295.269 174.724C307.607 169.171 318.274 160.482 326.206 149.524C333.914 138.786 338.901 126.338 340.738 113.25C342.646 99.8496 341.757 86.029 337.178 73.2207C336.003 69.9296 334.621 66.716 333.041 63.5992C331.721 61.0016 327.853 60.0451 325.432 61.6052C322.841 63.2 321.962 66.5493 323.437 69.2097C324.212 70.7351 324.933 72.2859 325.599 73.8618L325.038 72.5341C327.559 78.5924 329.273 84.9553 330.137 91.4596L329.938 89.9821C330.857 97.0387 330.84 104.186 329.889 111.238L330.088 109.76C329.127 116.812 327.243 123.707 324.486 130.269L325.047 128.941C323.629 132.289 321.976 135.533 320.1 138.648C319.15 140.222 318.141 141.759 317.075 143.258C316.606 143.917 316.124 144.564 315.637 145.208C315.002 146.05 316.502 144.109 315.846 144.935C315.735 145.075 315.624 145.216 315.511 145.356C315.175 145.777 314.833 146.194 314.487 146.607C312.175 149.364 309.653 151.936 306.942 154.302C306.266 154.891 305.58 155.467 304.882 156.03C304.534 156.31 304.191 156.602 303.829 156.863C303.842 156.853 305 155.974 304.315 156.484C304.099 156.645 303.886 156.808 303.67 156.967C302.231 158.033 300.755 159.043 299.24 160C295.753 162.196 292.094 164.107 288.3 165.716L289.628 165.156C283.083 167.91 276.203 169.791 269.167 170.752L270.645 170.553C263.612 171.503 256.484 171.516 249.448 170.591L250.926 170.789C244.531 169.931 238.276 168.241 232.319 165.762L233.647 166.322C230.197 164.866 226.871 163.133 223.7 161.141C222.131 160.153 220.603 159.104 219.115 157.993C218.903 157.835 218.693 157.674 218.481 157.515C217.803 157.003 218.969 157.893 218.978 157.899C218.584 157.616 218.204 157.313 217.84 156.991C217.122 156.407 216.415 155.808 215.719 155.197C212.934 152.745 210.334 150.093 207.939 147.26C207.339 146.552 206.752 145.833 206.178 145.103C205.93 144.787 205.477 144.147 206.478 145.495C206.346 145.318 206.21 145.144 206.076 144.967C205.757 144.544 205.442 144.117 205.131 143.687C204.042 142.181 203.007 140.638 202.026 139.058C199.808 135.482 197.874 131.739 196.238 127.862L196.799 129.19C194.123 122.826 192.293 116.14 191.356 109.302L191.555 110.779C190.71 104.475 190.698 98.088 191.519 91.7811L191.32 93.2587C192.163 87.1512 193.807 81.1813 196.21 75.5033L195.649 76.831C197.161 73.2764 198.945 69.8435 200.984 66.5626C202.005 64.9207 203.087 63.3188 204.23 61.7569C204.49 61.4021 204.752 61.0493 205.018 60.6988C205.258 60.3817 205.919 59.5921 204.791 60.9866C204.902 60.8499 205.008 60.7093 205.117 60.5713C205.744 59.7771 206.387 58.9953 207.045 58.2259C209.534 55.313 212.231 52.5835 215.114 50.0587C215.843 49.4206 216.583 48.7958 217.334 48.1845C217.676 47.9068 218.02 47.6319 218.366 47.3598C218.504 47.2511 218.644 47.1444 218.782 47.0348C217.301 48.2128 218.371 47.3554 218.707 47.1037C220.256 45.9435 221.846 44.8414 223.478 43.7975C227.106 41.4787 230.922 39.4688 234.887 37.789L233.558 38.3493C239.312 35.9346 264.803 30.2352 269.44 30.8573L267.961 30.6587C274.776 31.6096 281.436 33.4488 287.773 36.1295L286.444 35.5693C289.655 36.932 292.776 38.4987 295.787 40.2596C297.291 41.141 298.766 42.0705 300.211 43.0479C300.895 43.5106 301.572 43.9837 302.241 44.4671C302.576 44.7087 302.909 44.953 303.24 45.1999C303.423 45.337 303.606 45.476 303.789 45.6134C304.56 46.1907 302.728 44.7774 303.536 45.4159C306.239 47.5387 308.807 49.8289 311.223 52.2731C312.41 53.4811 313.556 54.7273 314.661 56.0119C315.228 56.6711 315.783 57.3399 316.326 58.0184C316.597 58.3556 317.517 59.5754 316.389 58.0811C316.665 58.4463 316.943 58.8091 317.215 59.177C319.558 62.3469 321.639 65.7022 323.437 69.2097C324.767 71.8017 328.618 72.7682 331.046 71.2036C333.638 69.6096 334.517 66.2594 333.041 63.5992Z" fill="#3F3D56"/>
<path d="M268.245 154.302C267.069 154.356 265.985 153.67 265.531 152.585C265.077 151.499 265.35 150.246 266.214 149.447C266.285 149.167 266.336 148.965 266.406 148.684C266.381 148.623 266.356 148.562 266.33 148.501C263.75 142.352 247.286 159.494 246.574 165.273C246.261 167.827 246.393 170.417 246.965 172.926C241.632 161.299 238.863 148.662 238.845 135.871C238.844 132.661 239.022 129.454 239.379 126.264C239.674 123.649 240.084 121.053 240.608 118.475C243.466 104.489 249.603 91.3792 258.515 80.2236C263.611 80.5079 268.078 79.732 268.509 69.8595C268.586 68.1034 269.889 66.5829 270.176 64.8529C269.69 64.9167 269.195 64.9565 268.709 64.9884C268.557 64.9963 268.398 65.0043 268.246 65.0123L268.189 65.0149C267.097 65.0638 266.077 64.4675 265.585 63.4917C265.093 62.5158 265.219 61.3421 265.908 60.4935C266.118 60.2351 266.329 59.9768 266.539 59.7187C266.858 59.32 267.185 58.9294 267.504 58.5308C267.541 58.4929 267.576 58.453 267.608 58.4112C267.975 57.9567 268.342 57.5103 268.709 57.0559C268.039 56.0169 267.138 55.1465 266.076 54.5127C262.399 52.3602 257.326 53.851 254.67 57.1755C252.006 60.4999 251.504 65.1638 252.429 69.3174C253.339 72.8517 254.844 76.2055 256.88 79.235C256.68 79.4901 256.473 79.7372 256.273 79.9924C252.628 84.6773 249.451 89.7081 246.788 95.0125C247.541 89.1294 238.327 67.8834 234.763 63.3833C230.483 57.9778 221.705 60.3369 220.951 67.1891C220.944 67.2554 220.937 67.3218 220.93 67.3881C221.459 67.6865 221.977 68.0033 222.484 68.3384C223.788 69.2088 224.423 70.7898 224.084 72.3195C223.745 73.8492 222.501 75.0141 220.952 75.2528L220.874 75.2648C213.789 85.3757 236.502 111.692 242.187 105.783C239.511 113.362 237.833 121.257 237.194 129.27C236.832 133.996 236.853 138.745 237.258 143.468L237.234 143.301C235.97 133.013 214.3 117.717 207.972 118.991C204.326 119.725 200.735 119.559 201.289 123.234C201.298 123.293 201.307 123.351 201.316 123.41C202.298 123.81 203.254 124.27 204.179 124.789C204.709 125.088 205.227 125.404 205.734 125.739C207.037 126.61 207.672 128.191 207.333 129.721C206.994 131.25 205.75 132.415 204.201 132.654L204.123 132.666C204.068 132.674 204.02 132.682 203.964 132.69C200.739 143.781 224.656 161.68 239.196 155.985H239.204C240.645 162.243 242.733 168.335 245.433 174.162H267.688C267.767 173.915 267.839 173.66 267.911 173.413C265.851 173.542 263.783 173.419 261.753 173.046C263.404 171.021 265.055 168.98 266.707 166.955C266.743 166.917 266.778 166.877 266.81 166.835C267.648 165.799 268.493 164.771 269.331 163.734L269.331 163.733C269.376 160.556 269.01 157.386 268.245 154.302ZM237.832 148.611L237.64 148.18C237.648 147.869 237.648 147.558 237.64 147.239C237.64 147.152 237.625 147.064 237.625 146.976C237.696 147.526 237.76 148.076 237.84 148.626L237.832 148.611Z" fill="#3F3D56"/>
<path d="M18.194 108.018C22.6984 108.018 26.3499 104.369 26.3499 99.8667C26.3499 95.3646 22.6984 91.7149 18.194 91.7149C13.6896 91.7149 10.0381 95.3646 10.0381 99.8667C10.0381 104.369 13.6896 108.018 18.194 108.018Z" fill="#3F3D56"/>
<path d="M116.065 196.947C120.569 196.947 124.221 193.297 124.221 188.795C124.221 184.293 120.569 180.643 116.065 180.643C111.56 180.643 107.909 184.293 107.909 188.795C107.909 193.297 111.56 196.947 116.065 196.947Z" fill="#3F3D56"/>
<path d="M487.53 196.947C492.034 196.947 495.686 193.297 495.686 188.795C495.686 184.293 492.034 180.643 487.53 180.643C483.025 180.643 479.374 184.293 479.374 188.795C479.374 193.297 483.025 196.947 487.53 196.947Z" fill="#3F3D56"/>
<path d="M507.549 93.1971C512.053 93.1971 515.705 89.5474 515.705 85.0453C515.705 80.5432 512.053 76.8936 507.549 76.8936C503.044 76.8936 499.393 80.5432 499.393 85.0453C499.393 89.5474 503.044 93.1971 507.549 93.1971Z" fill="#3F3D56"/>
<path d="M483.822 17.608C488.327 17.608 491.978 13.9584 491.978 9.45626C491.978 4.95417 488.327 1.3045 483.822 1.3045C479.318 1.3045 475.667 4.95417 475.667 9.45626C475.667 13.9584 479.318 17.608 483.822 17.608Z" fill="#3F3D56"/>
<path d="M143.498 85.0453C143.488 89.37 140.086 92.9267 135.764 93.1311C131.442 93.3355 127.719 90.1158 127.3 85.8114C126.882 81.5069 129.914 77.6308 134.195 76.9992C138.475 76.3677 142.499 79.2028 143.343 83.4446C143.447 83.9717 143.499 84.5079 143.498 85.0453Z" fill="#3F3D56"/>
<path d="M306.617 41.3222C311.121 41.3222 314.773 37.6726 314.773 33.1705C314.773 28.6684 311.121 25.0187 306.617 25.0187C302.112 25.0187 298.461 28.6684 298.461 33.1705C298.461 37.6726 302.112 41.3222 306.617 41.3222Z" fill="#3F3D56"/>
<path d="M225.799 33.1705C225.789 37.4952 222.387 41.0519 218.065 41.2563C213.742 41.4607 210.02 38.241 209.601 33.9366C209.182 29.6321 212.215 25.7559 216.495 25.1244C220.776 24.4929 224.8 27.328 225.643 31.5698C225.748 32.0969 225.8 32.6331 225.799 33.1705Z" fill="#3F3D56"/>
<path d="M120.514 9.45626C120.503 13.781 117.101 17.3377 112.779 17.5421C108.457 17.7465 104.734 14.5268 104.315 10.2223C103.897 5.9179 106.929 2.04174 111.21 1.41021C115.491 0.778676 119.514 3.61377 120.358 7.85555C120.462 8.38268 120.515 8.91886 120.514 9.45626Z" fill="#3F3D56"/>
<path d="M391.883 110.983C396.387 110.983 400.039 107.333 400.039 102.831C400.039 98.3289 396.387 94.6792 391.883 94.6792C387.379 94.6792 383.727 98.3289 383.727 102.831C383.727 107.333 387.379 110.983 391.883 110.983Z" fill="#3F3D56"/>
<path d="M263.613 36.8758C270.164 36.8758 275.476 31.5672 275.476 25.0187C275.476 18.4702 270.164 13.1616 263.613 13.1616C257.061 13.1616 251.75 18.4702 251.75 25.0187C251.75 31.5672 257.061 36.8758 263.613 36.8758Z" fill="#3F3D56"/>
</svg>
