<svg xmlns="http://www.w3.org/2000/svg" viewBox="0 0 517 198" fill="none">
  <path fill="#22223B" d="M142.564 85.668a4.995 4.995 0 0 0-1.26-1.979 4.806 4.806 0 0 0-.682-.526c-1.936-1.29-4.827-1.578-6.666 0a4.38 4.38 0 0 0-.512.526 53.62 53.62 0 0 1-1.69 1.979 65.206 65.206 0 0 1-2.936 3.142c-.289.281-.579.57-.875.852-.171.17-.341.334-.512.497a66.063 66.063 0 0 1-1.994 1.815c-.356.319-.712.63-1.075.934-.542.452-1.083.904-1.632 1.341a2.575 2.575 0 0 0-.155.119c-.015.007-.022.022-.037.03-.008 0-.015 0-.023.014a.13.13 0 0 0-.051.037c-.164.112-.275.186-.356.252.029-.014.059-.037.089-.051-.134.103-.275.207-.408.31a68.934 68.934 0 0 1-3.982 2.735 73.53 73.53 0 0 1-10.543 5.595c-.245.097-.497.201-.749.297a63.779 63.779 0 0 1-30.288 4.461 57.309 57.309 0 0 1-3.159-.333 65.914 65.914 0 0 1-3.625-.638 72.682 72.682 0 0 1-13.361-4.031 87.999 87.999 0 0 1-15.318-8.982c-.742-.526-1.49-1.052-2.24-1.563.853-2.09 1.69-4.18 2.507-6.285.407-1.015.8-2.03 1.186-3.053 3.032-7.878 5.88-15.83 8.608-23.81a672.521 672.521 0 0 0 7.807-24.397c.253-.83.497-1.66.735-2.49 1.282-4.32 2.513-8.65 3.692-12.99.111-.423.23-.838.334-1.26.34-1.245.674-2.49 1-3.735.742-2.809-.934-6.166-3.885-6.84a5.66 5.66 0 0 0-6.836 3.883c-.319 1.2-.637 2.394-.964 3.594a646.799 646.799 0 0 1-4.938 17.349l-.756 2.49a655.029 655.029 0 0 1-15.051 43.915c-.542 1.43-1.098 2.86-1.654 4.291-.319.837-.645 1.675-.971 2.505-.215.526-.423 1.052-.63 1.57a31.01 31.01 0 0 0-6.532-1.57l-.356-.045a20.324 20.324 0 0 0-5.198.045 17.732 17.732 0 0 0-12.782 7.9C.303 99.133.347 107.092 5.308 111.82c5.108 4.869 12.841 4.832 18.855 1.786a21.015 21.015 0 0 0 7.8-7.307 37.497 37.497 0 0 0 2.031-3.446c.156.104.312.208.467.319.593.415 1.187.837 1.772 1.252a82.75 82.75 0 0 0 10.759 6.603 80.364 80.364 0 0 0 25.669 7.759c.2.022.393.052.593.074.986.126 1.98.223 2.973.304a76.979 76.979 0 0 0 41.21-8.418 77.165 77.165 0 0 0 8-4.773 67.03 67.03 0 0 0 2.506-1.778 74.955 74.955 0 0 0 10.017-8.856 67.608 67.608 0 0 0 3.344-3.787 5.972 5.972 0 0 0 1.631-3.928 5.595 5.595 0 0 0-.371-1.956ZM19.788 103.32c.156-.111.311-.23.46-.348-.045.111-.26.237-.46.348Zm2.38-2.394c-.17.193-.326.386-.497.578a17.31 17.31 0 0 1-1.927 1.846c-.002 0-.004 0-.006.002l-.002.005a2.81 2.81 0 0 0-.311.163c-.32.193-.645.371-.979.534-.653.24-1.325.426-2.01.556-.525.038-1.052.043-1.579.014h-.014c-.364-.08-.722-.179-1.075-.296-.179-.089-.349-.193-.52-.297a3.63 3.63 0 0 1-.163-.155 1.794 1.794 0 0 1-.207-.222c-.082-.149-.17-.297-.252-.445a7.13 7.13 0 0 1-.163-.586 9.264 9.264 0 0 1 .007-1.015c.1-.473.233-.939.4-1.393a8.2 8.2 0 0 1 .512-.934c.015-.03.089-.148.17-.281.008-.008.008-.008.008-.015.111-.126.222-.26.341-.378.2-.222.415-.415.63-.615.418-.274.852-.524 1.298-.749A14.443 14.443 0 0 1 18 96.658a18.531 18.531 0 0 1 3.27.03c1.03.178 2.045.428 3.04.748a27.335 27.335 0 0 1-2.143 3.49Zm-8.245-2.438a1.618 1.618 0 0 1-.23.29c.06-.11.137-.208.23-.29Z"/>
  <path fill="#22223B" d="m120.276 9.982-.2 6.981a9084.05 9084.05 0 0 1-.437 15.504c-.156 5.817-.319 11.632-.49 17.444-.081 3.002-.165 6.003-.252 9.004-.23 8.085-.457 16.168-.682 24.248-.022.837-.052 1.667-.074 2.505l-.334 12.027c-.126 4.35-.249 8.701-.37 13.051a6619 6619 0 0 1-.275 9.789l-2.002 70.987a5.669 5.669 0 0 1-5.561 5.558 5.605 5.605 0 0 1-5.56-5.558c.37-13.309.746-26.619 1.127-39.929.333-12.035.672-24.07 1.015-36.105l.334-11.901c.171-5.973.339-11.946.504-17.92.022-.837.052-1.667.074-2.504a2876367.458 2876367.458 0 0 0 1.038-36.994c.134-4.565.262-9.133.386-13.702l.445-15.622c.067-2.29.126-4.573.193-6.863a5.669 5.669 0 0 1 5.56-5.558 5.604 5.604 0 0 1 5.561 5.558Zm305.052 1.543a661.54 661.54 0 0 1-20.88 65.17c-2.229 5.89-4.51 11.766-6.948 17.572l.56-1.327a40.452 40.452 0 0 1-4.144 7.864c-.113.158-.229.316-.346.471.576-.736.686-.881.328-.436-.188.223-.374.446-.569.664a17.59 17.59 0 0 1-2.121 2.006l.695-.54c-.08.19-.647.442-.823.55a13.37 13.37 0 0 1-1.783.903l1.328-.56a14.161 14.161 0 0 1-3.137.86l1.478-.198a12.676 12.676 0 0 1-3.186.034l1.478.198a10.377 10.377 0 0 1-2.525-.679l1.329.56a8.897 8.897 0 0 1-1.245-.664c-.201-.131-.819-.599-.011.018.84.642.108.055-.065-.115-.144-.142-.274-.297-.415-.441-.654-.671.739 1.153.294.369a13.586 13.586 0 0 1-.651-1.213l.561 1.328a8.808 8.808 0 0 1-.54-1.965l.199 1.478a10.104 10.104 0 0 1-.003-2.524l-.198 1.478a11.82 11.82 0 0 1 .737-2.727l-.56 1.327a12.26 12.26 0 0 1 .873-1.703c.154-.281.335-.547.54-.794.037.012-.94 1.121-.422.561.136-.147.262-.3.4-.446.219-.233.455-.445.686-.666.774-.737-1.084.716-.19.133a14.125 14.125 0 0 1 2.038-1.11l-1.328.56a15.072 15.072 0 0 1 3.703-.993l-1.478.198a19.012 19.012 0 0 1 4.79.057l-1.478-.199a24.68 24.68 0 0 1 5.851 1.645l-1.328-.56c3.996 1.715 7.535 4.261 11.068 6.757a82.989 82.989 0 0 0 10.756 6.6 80.374 80.374 0 0 0 25.67 7.762 77.08 77.08 0 0 0 68.648-27.236 5.983 5.983 0 0 0 1.628-3.93 5.65 5.65 0 0 0-1.628-3.93c-2.04-1.872-5.894-2.4-7.864 0a71.01 71.01 0 0 1-9.082 9.217c-.6.506-1.209 1.003-1.825 1.49-.292.23-1.2.844.195-.146-.32.227-.626.474-.942.707a73.64 73.64 0 0 1-15.075 8.571l1.328-.561a71.816 71.816 0 0 1-17.922 4.908l1.479-.198a72.446 72.446 0 0 1-19.095-.029l1.478.199a74.064 74.064 0 0 1-18.43-5.017l1.328.56a86.016 86.016 0 0 1-16.116-9.331 64.398 64.398 0 0 0-8.24-5.183 31.757 31.757 0 0 0-10.705-3.252c-6.998-.823-14.129 1.901-17.977 7.944-3.541 5.562-3.495 13.52 1.463 18.249 5.107 4.871 12.841 4.83 18.86 1.783 5.796-2.934 9.277-9.03 11.726-14.778 5.509-12.936 10.387-26.17 14.932-39.472a659.822 659.822 0 0 0 13.573-44.873c.742-2.808-.935-6.166-3.884-6.837a5.66 5.66 0 0 0-6.841 3.882Z"/>
  <path fill="#22223B" d="m480.813 9.982-2.002 70.99-1.991 70.619-1.126 39.931a5.607 5.607 0 0 0 5.561 5.558 5.67 5.67 0 0 0 5.561-5.558l2.001-70.989 1.992-70.62 1.125-39.93a5.607 5.607 0 0 0-5.56-5.559 5.67 5.67 0 0 0-5.561 5.558ZM277.789 148.14a46.727 46.727 0 0 1-16.534 26.36c-1.386.126-2.763.254-4.13.385-1.134.104-2.254.215-3.366.319l-.2.022-.141-1.215-.564-4.921a27.867 27.867 0 0 1-2.446-24.04c1.957-5.277 5.501-9.938 8.986-14.562 4.812-6.388 9.49-12.702 9.661-20.491a44.862 44.862 0 0 1 5.857 9.879 12.192 12.192 0 0 0-3.796 2.793c-.304.334-.608.801-.4 1.201.178.341.623.422 1.008.467l2.788.289c.741.081 1.483.155 2.224.237a47.398 47.398 0 0 1 1.817 9.026c.5 4.761.242 9.571-.764 14.251Z"/>
  <path fill="#FCA311" d="M302.405 128.716c-4.374 3.18-6.932 7.752-8.919 12.791a12.328 12.328 0 0 0-5.316 3.394c-.304.334-.608.801-.401 1.201.178.341.623.422 1.009.467l2.787.289c-1.987 5.958-3.811 12.124-7.325 17.156a27.426 27.426 0 0 1-8.92 8.085 28.53 28.53 0 0 1-2.98 1.474 795.245 795.245 0 0 0-15.215 1.312c-1.134.104-2.254.215-3.366.319a35.615 35.615 0 0 1 0-1.223 46.901 46.901 0 0 1 11.307-29.539c.334-.385.675-.763 1.023-1.141a45.822 45.822 0 0 1 12.464-9.412 46.481 46.481 0 0 1 23.852-5.173Z"/>
  <path fill="#FCA311" d="m258.408 171.083-.853 2.52-.43 1.282c-1.134.104-2.254.215-3.366.319l-.2.022-3.678.378a50.782 50.782 0 0 1-.949-1.134c-16.111-19.5-13.437-48.345 5.984-64.554-.979 5.12.163 10.026 2.039 14.895a12.168 12.168 0 0 0-4.375 3.046c-.304.333-.608.8-.4 1.2.178.341.623.423 1.008.467l2.788.289c.741.082 1.483.156 2.224.237l1.046.112c.052.111.096.214.148.326 2.113 4.579 4.389 9.181 5.672 13.954.322 1.197.574 2.412.756 3.639a27.856 27.856 0 0 1-7.414 23.002Z"/>
  <path fill="#22223B" d="M333.041 63.6c-6.383-12.445-16.272-22.915-27.903-30.61a84.727 84.727 0 0 0-38.972-13.62 73.2 73.2 0 0 0-5.486-.292c-2.166-.032-34.749 9.361-45.664 17.032a84.715 84.715 0 0 0-26.197 29.292 75.934 75.934 0 0 0-8.991 38.264 84.128 84.128 0 0 0 10.902 38.147 81.883 81.883 0 0 0 27.021 28.713c11.372 7.253 22.796 26.483 36.223 27.162 13.528.684 28.957-17.456 41.295-22.964a77.414 77.414 0 0 0 30.937-25.2 81.674 81.674 0 0 0 14.532-36.274c1.908-13.4 1.019-27.221-3.56-40.03a83.007 83.007 0 0 0-4.137-9.62c-1.32-2.598-5.188-3.555-7.609-1.995a5.69 5.69 0 0 0-1.995 7.605 73.044 73.044 0 0 1 2.162 4.652l-.561-1.328a74.949 74.949 0 0 1 5.099 18.926l-.199-1.478a80.888 80.888 0 0 1-.049 21.256l.199-1.478a81.281 81.281 0 0 1-5.602 20.509l.561-1.328a77.094 77.094 0 0 1-4.947 9.707 73.393 73.393 0 0 1-3.025 4.61 83.665 83.665 0 0 1-1.438 1.95c-.635.842.865-1.099.209-.273-.111.14-.222.281-.335.421a69.404 69.404 0 0 1-10.629 10.674c-.348.28-.691.572-1.053.833.013-.01 1.171-.889.486-.379-.216.161-.429.324-.645.483a72.334 72.334 0 0 1-4.43 3.033 76.79 76.79 0 0 1-10.94 5.716l1.328-.56a81.03 81.03 0 0 1-20.461 5.596l1.478-.199a80.23 80.23 0 0 1-21.197.038l1.478.198a74.061 74.061 0 0 1-18.607-5.027l1.328.56a69.5 69.5 0 0 1-9.947-5.181 70.05 70.05 0 0 1-4.585-3.148c-.212-.158-.422-.319-.634-.478-.678-.512.488.378.497.384a14.37 14.37 0 0 1-1.138-.908 73.878 73.878 0 0 1-2.121-1.794 75.622 75.622 0 0 1-7.78-7.937 75.904 75.904 0 0 1-1.761-2.157c-.248-.316-.701-.956.3.392-.132-.177-.268-.351-.402-.528a79.654 79.654 0 0 1-4.05-5.909 80.935 80.935 0 0 1-5.788-11.196l.561 1.328a78.964 78.964 0 0 1-5.443-19.888l.199 1.477a72.525 72.525 0 0 1-.036-18.998l-.199 1.478a70.175 70.175 0 0 1 4.89-17.756l-.561 1.328a75.274 75.274 0 0 1 5.335-10.268 76.876 76.876 0 0 1 4.034-5.864c.24-.317.901-1.107-.227.288.111-.137.217-.278.326-.416a79.55 79.55 0 0 1 13.249-13.212c.138-.108.278-.215.416-.324-1.481 1.178-.411.32-.075.069a78.64 78.64 0 0 1 4.771-3.306 76.853 76.853 0 0 1 11.409-6.009l-1.329.56c5.754-2.414 31.245-8.114 35.882-7.492l-1.479-.198a78.801 78.801 0 0 1 19.812 5.47l-1.329-.56a81.838 81.838 0 0 1 9.343 4.69 80.923 80.923 0 0 1 7.453 4.94l.549.414c.771.578-1.061-.836-.253-.197a82.167 82.167 0 0 1 7.687 6.857 76.66 76.66 0 0 1 5.103 5.745c.271.338 1.191 1.557.063.063.276.365.554.728.826 1.096a72.584 72.584 0 0 1 6.222 10.033c1.33 2.592 5.181 3.558 7.609 1.994a5.688 5.688 0 0 0 1.995-7.605Z"/>
  <path fill="#22223B" d="M268.245 154.302a2.802 2.802 0 0 1-2.031-4.855l.192-.763-.076-.183c-2.58-6.149-19.044 10.993-19.756 16.772a22.255 22.255 0 0 0 .391 7.653 89.179 89.179 0 0 1-8.12-37.055c-.001-3.21.177-6.417.534-9.607a89.393 89.393 0 0 1 1.229-7.789 90.227 90.227 0 0 1 17.907-38.251c5.096.284 9.563-.492 9.994-10.365.077-1.756 1.38-3.276 1.667-5.006-.486.064-.981.104-1.467.135l-.463.024-.057.003a2.777 2.777 0 0 1-2.281-4.522l.631-.774c.319-.399.646-.79.965-1.188.037-.038.072-.078.104-.12.367-.454.734-.9 1.101-1.355a8.029 8.029 0 0 0-2.633-2.543c-3.677-2.153-8.75-.662-11.406 2.663-2.664 3.324-3.166 7.988-2.241 12.141a32.153 32.153 0 0 0 4.451 9.918c-.2.255-.407.502-.607.757a90.814 90.814 0 0 0-9.485 15.02c.753-5.883-8.461-27.129-12.025-31.629-4.28-5.405-13.058-3.046-13.812 3.806l-.021.2a24.72 24.72 0 0 1 1.554.95 3.798 3.798 0 0 1-1.532 6.914l-.078.012c-7.085 10.11 15.628 36.427 21.313 30.518a92.669 92.669 0 0 0-4.993 23.487 87.752 87.752 0 0 0 .064 14.198l-.024-.167c-1.264-10.288-22.934-25.584-29.262-24.31-3.646.734-7.237.568-6.683 4.243l.027.176c.982.4 1.938.86 2.863 1.379.53.299 1.048.615 1.555.95a3.8 3.8 0 0 1-1.533 6.915l-.078.012-.159.024c-3.225 11.091 20.692 28.99 35.232 23.295h.008a92.731 92.731 0 0 0 6.229 18.177h22.255c.079-.247.151-.502.223-.749-2.06.129-4.128.006-6.158-.367 1.651-2.025 3.302-4.066 4.954-6.091.036-.038.071-.078.103-.12.838-1.036 1.683-2.064 2.521-3.101v-.001a36.999 36.999 0 0 0-1.086-9.431Zm-30.413-5.691-.192-.431a18.45 18.45 0 0 0 0-.941c0-.087-.015-.175-.015-.263.071.55.135 1.1.215 1.65l-.008-.015ZM18.194 108.018a8.153 8.153 0 0 0 8.156-8.151 8.154 8.154 0 0 0-8.156-8.152 8.154 8.154 0 0 0-8.156 8.152 8.153 8.153 0 0 0 8.156 8.151Zm97.871 88.929a8.154 8.154 0 0 0 8.156-8.152 8.154 8.154 0 0 0-8.156-8.152 8.154 8.154 0 0 0-8.156 8.152 8.154 8.154 0 0 0 8.156 8.152Zm371.465 0a8.154 8.154 0 0 0 8.156-8.152 8.154 8.154 0 0 0-8.156-8.152 8.154 8.154 0 0 0-8.156 8.152 8.154 8.154 0 0 0 8.156 8.152Zm20.019-103.75a8.154 8.154 0 0 0 8.156-8.152 8.154 8.154 0 0 0-8.156-8.151 8.153 8.153 0 0 0-8.156 8.151 8.154 8.154 0 0 0 8.156 8.152Zm-23.727-75.589a8.153 8.153 0 0 0 8.156-8.152 8.154 8.154 0 0 0-8.156-8.151 8.153 8.153 0 0 0-8.155 8.151 8.153 8.153 0 0 0 8.155 8.152ZM143.498 85.045a8.115 8.115 0 0 1-7.734 8.086 8.117 8.117 0 0 1-8.464-7.32A8.115 8.115 0 0 1 134.195 77a8.119 8.119 0 0 1 9.303 8.046Zm163.119-43.723a8.154 8.154 0 0 0 8.156-8.152 8.154 8.154 0 0 0-8.156-8.151 8.154 8.154 0 0 0-8.156 8.151 8.153 8.153 0 0 0 8.156 8.152Zm-80.818-8.152a8.115 8.115 0 0 1-7.734 8.086 8.115 8.115 0 0 1-1.57-16.132 8.117 8.117 0 0 1 9.304 8.046ZM120.514 9.456a8.117 8.117 0 0 1-7.735 8.086 8.117 8.117 0 0 1-8.464-7.32 8.115 8.115 0 0 1 6.895-8.812 8.118 8.118 0 0 1 9.304 8.046Zm271.369 101.527a8.154 8.154 0 0 0 8.156-8.152 8.154 8.154 0 0 0-8.156-8.152 8.154 8.154 0 0 0-8.156 8.152 8.154 8.154 0 0 0 8.156 8.152Zm-128.27-74.107c6.551 0 11.863-5.309 11.863-11.857 0-6.549-5.312-11.857-11.863-11.857-6.552 0-11.863 5.308-11.863 11.857 0 6.548 5.311 11.857 11.863 11.857Z"/>
</svg>
