<svg xmlns="http://www.w3.org/2000/svg" fill="none" viewBox="0 0 315 224">
  <mask id="not-found-a" width="315" height="224" x="0" y="0" maskUnits="userSpaceOnUse" style="mask-type:luminance">
    <path fill="#fff" d="M314.369 0H0v224h314.369z"/>
  </mask>
  <g mask="url(#not-found-a)">
    <path class="fill-neutral-200 dark:fill-neutral-900" d="M53.693 93.955c-26.592 4.72-45.387 27.88-42.3 53.289 1.643 13.459 8.305 25.409 25.447 28.841 45.473 9.143 217.126 43.56 250.851-16.074 26.293-46.473 10.623-78.65-13.796-98.79s-74.987-15.96-116.836-2.173c-31.119 10.277-54.26 26.178-103.366 34.907" opacity=".3"/>
    <path class="fill-neutral-200 dark:fill-neutral-900" d="M159.203 223.923c85.494 0 154.8-5.122 154.8-11.44 0-6.319-69.306-11.441-154.8-11.441s-154.8 5.122-154.8 11.441c0 6.318 69.306 11.44 154.8 11.44" opacity=".45"/>
    <path class="fill-orange-300" d="M72.41 53.645c10.163 0 18.401-8.239 18.401-18.401 0-10.163-8.238-18.4-18.4-18.4-10.163 0-18.401 8.237-18.401 18.4s8.238 18.4 18.4 18.4"/>
    <path class="fill-orange-400" d="M72.41 70.325c19.375 0 35.081-15.707 35.081-35.081S91.785.164 72.411.164c-19.375 0-35.08 15.706-35.08 35.08s15.705 35.08 35.08 35.08" opacity=".2"/>
    <path class="fill-dark-blue-950 dark:fill-blue-950" d="M149.676 211.954c27.169 0 49.193-22.025 49.193-49.193 0-27.169-22.024-49.194-49.193-49.194s-49.194 22.025-49.194 49.194c0 27.168 22.025 49.193 49.194 49.193"/>
    <path class="fill-white" d="M149.677 193.726c17.102 0 30.966-13.864 30.966-30.965 0-17.102-13.864-30.966-30.966-30.966s-30.966 13.864-30.966 30.966c0 17.101 13.864 30.965 30.966 30.965"/>
    <path class="fill-orange-500" d="M90.282 174.499c3.259 0 4.432 1.173 4.432 4.422v5.605c0 3.259-.962 4.432-4.432 4.432h-8.99v17.064c0 3.25-1.172 4.423-4.431 4.423h-6.384c-3.249 0-4.422-1.173-4.422-4.423v-17.064H23.072c-3.25 0-4.422-1.173-4.422-4.432v-4.691a8.65 8.65 0 0 1 1.538-5.336l43.262-53.674a7.76 7.76 0 0 1 6.249-3.124h7.21c3.26 0 4.432.913 4.432 4.432v52.366zm-24.227-34.917-28.274 34.917h28.274zm210.263 34.917c3.259 0 4.431 1.173 4.431 4.422v5.605c0 3.259-.913 4.432-4.431 4.432h-8.989v17.064c0 3.25-1.173 4.423-4.432 4.423h-6.384c-3.249 0-4.422-1.173-4.422-4.423v-17.064h-42.993c-3.249 0-4.422-1.173-4.422-4.432v-4.691a8.66 8.66 0 0 1 1.557-5.336l43.262-53.674a7.77 7.77 0 0 1 6.249-3.124h7.162c3.259 0 4.432.913 4.432 4.432v52.366zm-24.227-34.917-28.274 34.917h28.274z"/>
    <path class="fill-orange-500" d="M257.022 107.222s-8.181-2.23-9.96-9.854c0 0 12.681-2.557 13.046 10.527z" opacity=".58"/>
    <path class="fill-orange-500" d="M258.032 106.414s-5.72-9.046-.692-17.497c0 0 9.614 6.124 5.364 17.517z" opacity=".73"/>
    <path class="fill-orange-500" d="M259.504 106.424s3.019-9.556 12.161-11.363c0 0 1.712 6.2-5.922 11.382z"/>
    <path fill="#F4A28C" d="M155.627 98.166s1.346 6.489.759 10.988a3.32 3.32 0 0 1-3.759 2.884c-2.259-.326-5.22-1.422-6.364-4.806l-2.653-5.528a5.97 5.97 0 0 1 1.855-6.634c3.403-3.134 9.537-.855 10.162 3.096"/>
    <path fill="#F4A28C" d="m144.09 102.675-.865 21.736 12.007-.384-4.191-15.661z"/>
    <path fill="#F4A28C" d="M149.292 104.636s-.346-2.538-2.23-2.115c-1.885.423-1.404 4.086 1.23 4.115zm6.969-2.336 2.144 2.317a1.07 1.07 0 0 1 .243.999 1.06 1.06 0 0 1-.714.741l-2.461.769z"/>
    <path fill="#CE8172" d="M152.109 111.76a7.9 7.9 0 0 1-4.134-1.846s.634 3.932 5.441 7.316z" opacity=".31"/>
    <path class="fill-orange-500" d="m143.245 124.411 12.008-.384s18.862-3.202 25.409 12.18-1.846 37.119-1.846 37.119-6.826 22.948-35.571 20.41c0 0-23.909-1.384-26.611-34.158a32 32 0 0 0-.654-4.249c-1.096-5.124-1.73-20.669 27.265-30.918"/>
    <path class="fill-dark-blue-950 dark:fill-blue-950" d="M127.16 144.831s6.403.702 15.296 15.593c8.892 14.892 26.351 9.431 36.195-1.586l-18.266 24.169-20.458-1.644-11.123-29.61z" opacity=".08"/>
    <path class="fill-orange-400" d="m197.276 110.363-3.516.47 1.367 10.234 3.516-.47z"/>
    <path class="fill-dark-blue-950 dark:fill-blue-950" d="m197.276 110.363-3.516.47 1.367 10.234 3.516-.47z" opacity=".08"/>
    <path class="fill-dark-blue-950 dark:fill-blue-950" d="m253.572 106.203 1.654 11.354 10.45.048 1.538-11.344zm-99.55-7.576a26.3 26.3 0 0 1-6.124.26 5.54 5.54 0 0 1 .712 6.028 4.5 4.5 0 0 1-5.192 2.422l-.894-8.479a6.73 6.73 0 0 1 2.692-6.383 23.5 23.5 0 0 1 2.663-1.721c2.317-1.27 6.076-.068 8.066-1.971a1.61 1.61 0 0 1 2.236.044c.194.196.335.44.408.706.692 2.528.711 6.633-2.605 8.45a6.1 6.1 0 0 1-1.962.644m45.231 18.998-5.403.721 1.755 13.141 5.403-.722z"/>
    <path class="fill-orange-400" d="M192.276 89.187a11.63 11.63 0 0 0-9.699 8.543 11.64 11.64 0 0 0 4.181 12.23 11.631 11.631 0 0 0 17.124-15.08 11.63 11.63 0 0 0-7.076-5.407 11.6 11.6 0 0 0-4.53-.286m2.634 19.669a8.22 8.22 0 0 1-8.208-4.015 8.222 8.222 0 0 1 4.448-11.908 8.218 8.218 0 0 1 10.807 6.694 8.23 8.23 0 0 1-7.009 9.229z"/>
    <path class="fill-white dark:fill-neutral-900" d="M193.879 109.01a8.26 8.26 0 0 0 8.258-8.258 8.258 8.258 0 1 0-16.516 0 8.26 8.26 0 0 0 8.258 8.258"/>
    <path class="fill-orange-500" d="M116.326 146.446a5.95 5.95 0 0 1 4.874-4.385 5.94 5.94 0 0 1 5.942 2.77 136 136 0 0 1 11.536 23.448c6.874 18.324 40.58 6.239 53.02-36.484l7.095 4.412s-9.787 55.491-49.184 57.529c0 0-24.592 4.98-32.062-25.198 0 0-1.923-5.681-2.038-8.892l-.519-3.615a30.4 30.4 0 0 1 1.269-9.489z"/>
    <path class="fill-white" d="M116.326 146.446a5.95 5.95 0 0 1 4.874-4.385 5.94 5.94 0 0 1 5.942 2.77 136 136 0 0 1 11.536 23.448c6.874 18.324 40.58 6.239 53.02-36.484l7.095 4.412s-9.787 55.491-49.184 57.529c0 0-24.592 4.98-32.062-25.198 0 0-1.923-5.681-2.038-8.892l-.519-3.615a30.4 30.4 0 0 1 1.269-9.489z" opacity=".39"/>
    <path fill="#F4A28C" d="M193.496 132.871s.721-9.142 4.49-9.123c3.768.019 12.623 6.787-1.048 11.258z"/>
    <path class="fill-neutral-200 dark:fill-neutral-900" d="M291.768 63.066a6.498 6.498 0 0 0-7.547-6.412 8.75 8.75 0 0 0-7.691-4.615h-.317a10.41 10.41 0 0 0-5.536-11.86 10.403 10.403 0 0 0-14.653 11.86h-.318a8.768 8.768 0 1 0 0 17.526h30.409v-.058a6.51 6.51 0 0 0 5.653-6.44m-252.64 64.325a5.57 5.57 0 0 0-3.442-5.152 5.6 5.6 0 0 0-2.134-.424q-.45.008-.894.077a7.51 7.51 0 0 0-6.624-3.952h-.27a8.92 8.92 0 0 0-8.651-11.096 8.915 8.915 0 0 0-8.652 11.096h-.27a7.53 7.53 0 0 0-5.489 2.103 7.52 7.52 0 0 0 0 10.821 7.53 7.53 0 0 0 5.489 2.103h26.082v-.049a5.58 5.58 0 0 0 4.855-5.527"/>
  </g>
</svg>
