<svg xmlns="http://www.w3.org/2000/svg" viewBox="0 0 138 12">
  <path fill-rule="evenodd" d="M13.456 4.307a1.876 1.876 0 0 0-2.613-.041L3.165 11.49A1.878 1.878 0 1 1 .591 8.754L8.27 1.53a5.63 5.63 0 0 1 7.843.121l6.036 6.036a1.88 1.88 0 0 0 2.656 0l5.957-5.956c2.2-2.2 5.768-2.2 7.968 0l5.957 5.956a1.88 1.88 0 0 0 2.656 0l5.956-5.956c2.2-2.2 5.768-2.2 7.968 0l5.957 5.956a1.88 1.88 0 0 0 2.656 0l5.956-5.956c2.2-2.2 5.768-2.2 7.969 0l5.956 5.956a1.88 1.88 0 0 0 2.656 0l5.957-5.956c2.2-2.2 5.767-2.2 7.968 0l5.956 5.956a1.88 1.88 0 0 0 2.656 0l6.037-6.036a5.634 5.634 0 0 1 7.845-.12l7.676 7.223a1.878 1.878 0 0 1-2.574 2.736l-7.676-7.223a1.88 1.88 0 0 0-2.615.04l-6.037 6.036a5.634 5.634 0 0 1-7.968 0l-5.956-5.956a1.88 1.88 0 0 0-2.656 0l-5.957 5.956a5.634 5.634 0 0 1-7.968 0l-5.957-5.956a1.88 1.88 0 0 0-2.656 0l-5.956 5.956a5.634 5.634 0 0 1-7.968 0L58.61 4.387a1.88 1.88 0 0 0-2.656 0l-5.956 5.956a5.634 5.634 0 0 1-7.968 0l-5.957-5.956a1.88 1.88 0 0 0-2.656 0l-5.957 5.956a5.634 5.634 0 0 1-7.968 0z" clip-rule="evenodd"/>
</svg>
