<svg xmlns="http://www.w3.org/2000/svg" fill="none" viewBox="0 0 32 32">
  <mask id="logo-nodejs-a" width="28" height="32" x="2" y="0" maskUnits="userSpaceOnUse" style="mask-type:luminance">
    <path fill="#fff" d="M15.267.676 3.105 7.696a1.47 1.47 0 0 0-.735 1.272v14.049c0 .524.28 1.01.735 1.272l12.163 7.025a1.47 1.47 0 0 0 1.469 0l12.16-7.025c.454-.263.734-.748.734-1.272V8.967c0-.523-.28-1.008-.736-1.271L16.735.676a1.48 1.48 0 0 0-1.471 0"/>
  </mask>
  <g mask="url(#logo-nodejs-a)">
    <path fill="url(#logo-nodejs-b)" d="M41.92 6.504 7.652-10.294-9.92 25.552 24.348 42.35z"/>
  </g>
  <mask id="logo-nodejs-c" width="28" height="32" x="2" y="0" maskUnits="userSpaceOnUse" style="mask-type:luminance">
    <path fill="#fff" d="M2.672 23.909c.116.15.261.282.433.38l10.432 6.026 1.738.999a1.47 1.47 0 0 0 1.136.139L29.238 7.966a1.5 1.5 0 0 0-.342-.271l-7.963-4.599-4.21-2.422a1.6 1.6 0 0 0-.381-.153z"/>
  </mask>
  <g mask="url(#logo-nodejs-c)">
    <path fill="url(#logo-nodejs-d)" d="m-12.145 11.473 24.198 32.75L44.055 20.58l-24.2-32.75z"/>
  </g>
  <mask id="logo-nodejs-e" width="27" height="32" x="3" y="0" maskUnits="userSpaceOnUse" style="mask-type:luminance">
    <path fill="#fff" d="M15.855.488c-.204.02-.404.084-.588.188l-12.127 7 13.077 23.818a1.5 1.5 0 0 0 .523-.18l12.16-7.025c.375-.218.632-.586.71-1.004L16.281.512a1.5 1.5 0 0 0-.42-.024"/>
  </mask>
  <g mask="url(#logo-nodejs-e)">
    <path fill="url(#logo-nodejs-f)" d="M3.14.483v31.012h26.466V.483z"/>
  </g>
  <defs>
    <linearGradient id="logo-nodejs-b" x1="24.776" x2="7.205" y1="-1.921" y2="33.922" gradientUnits="userSpaceOnUse">
      <stop offset=".3" stop-color="#3E863D"/>
      <stop offset=".5" stop-color="#55934F"/>
      <stop offset=".8" stop-color="#5AAD45"/>
    </linearGradient>
    <linearGradient id="logo-nodejs-d" x1=".099" x2="32.102" y1="28.035" y2="4.389" gradientUnits="userSpaceOnUse">
      <stop offset=".57" stop-color="#3E863D"/>
      <stop offset=".72" stop-color="#619857"/>
      <stop offset="1" stop-color="#76AC64"/>
    </linearGradient>
    <linearGradient id="logo-nodejs-f" x1="3.149" x2="29.611" y1="15.99" y2="15.99" gradientUnits="userSpaceOnUse">
      <stop offset=".16" stop-color="#6BBF47"/>
      <stop offset=".38" stop-color="#79B461"/>
      <stop offset=".47" stop-color="#75AC64"/>
      <stop offset=".7" stop-color="#659E5A"/>
      <stop offset=".9" stop-color="#3E863D"/>
    </linearGradient>
  </defs>
</svg>
