<svg xmlns="http://www.w3.org/2000/svg" fill="none" viewBox="0 0 32 32">
  <g clip-path="url(#logo-docker-a)">
    <path fill="#1D63ED" d="M31.48 13.748c-.785-.529-2.846-.754-4.345-.35-.08-1.493-.85-2.751-2.259-3.849l-.521-.35-.347.525c-.683 1.037-.971 2.418-.87 3.673.081.774.35 1.643.87 2.274-1.951 1.131-3.749.875-11.711.875H.002c-.036 1.798.253 5.256 2.452 8.072q.365.466.799.902c1.788 1.79 4.49 3.103 8.53 3.107 6.163.006 11.444-3.326 14.656-11.381 1.057.017 3.847.19 5.212-2.45.034-.044.348-.699.348-.699zM8.026 12.103H4.569v3.457h3.457zm4.466 0H9.035v3.457h3.457zm4.466 0h-3.457v3.457h3.457zm4.466 0h-3.457v3.457h3.457zm-17.864 0H.103v3.457H3.56zm4.466-4.366H4.569v3.457h3.457zm4.466 0H9.035v3.457h3.457zm4.466 0h-3.457v3.457h3.457zm0-4.367h-3.457v3.457h3.457z"/>
  </g>
  <defs>
    <clipPath id="logo-docker-a">
      <path fill="#fff" d="M0 0h32v32H0z"/>
    </clipPath>
  </defs>
</svg>
