<svg xmlns="http://www.w3.org/2000/svg" fill="none" viewBox="0 0 32 32">
  <path class="fill-black dark:fill-white" d="M16 1.48c-8.285 0-15 6.499-15 14.516 0 8.018 6.715 14.516 15 14.516s15-6.498 15-14.516C31 7.98 24.285 1.48 16 1.48m7.12 18.076c-5.129 4.964-14.291 3.38-14.291 3.38s-1.654-8.85 3.493-13.83c2.851-2.76 7.576-2.646 10.562.228 2.987 2.874 3.088 7.462.236 10.222"/>
  <path class="fill-black dark:fill-white" d="m17.721 9.987-1.468 2.923-3.02 1.42 3.02 1.421 1.468 2.923 1.468-2.923 3.02-1.42-3.02-1.421z"/>
</svg>
