<svg xmlns="http://www.w3.org/2000/svg" fill="none" viewBox="0 0 32 32">
  <path fill="#3178C6" d="M28.07 1H3.93A2.93 2.93 0 0 0 1 3.93v24.14A2.93 2.93 0 0 0 3.93 31h24.14A2.93 2.93 0 0 0 31 28.07V3.93A2.93 2.93 0 0 0 28.07 1"/>
  <path fill="#3178C6" d="M28.07 1H3.93A2.93 2.93 0 0 0 1 3.93v24.14A2.93 2.93 0 0 0 3.93 31h24.14A2.93 2.93 0 0 0 31 28.07V3.93A2.93 2.93 0 0 0 28.07 1"/>
  <path fill="#fff" fill-rule="evenodd" d="M19.57 24.873v2.933q.715.366 1.692.55.978.183 2.06.183 1.053 0 2.003-.202a4.9 4.9 0 0 0 1.664-.664 3.4 3.4 0 0 0 1.133-1.21q.417-.747.417-1.847 0-.798-.238-1.398a3.3 3.3 0 0 0-.688-1.068 5 5 0 0 0-1.078-.839 11.5 11.5 0 0 0-1.416-.7q-.578-.24-1.037-.464a5.3 5.3 0 0 1-.78-.458 2 2 0 0 1-.494-.495 1.04 1.04 0 0 1-.174-.591q0-.303.155-.546.156-.242.44-.417.285-.174.697-.27.413-.096.918-.096.366 0 .774.055.408.054.821.17.413.114.802.288t.72.403v-2.74a7 7 0 0 0-1.462-.38 12 12 0 0 0-1.82-.125q-1.046 0-1.981.225a5 5 0 0 0-1.646.701 3.5 3.5 0 0 0-1.124 1.215q-.412.738-.412 1.764 0 1.311.756 2.237.757.926 2.297 1.567.606.248 1.128.486.523.238.903.495.38.256.601.56.22.3.22.687 0 .285-.137.527a1.2 1.2 0 0 1-.418.421q-.279.18-.697.28t-.976.1a5.64 5.64 0 0 1-3.622-1.338m-4.93-7.228h3.762v-2.407H7.914v2.407h3.745v10.718h2.98z" clip-rule="evenodd"/>
</svg>
