<svg xmlns="http://www.w3.org/2000/svg" fill="none" viewBox="0 0 32 32">
  <path class="fill-black dark:fill-white" d="M11.034 24.933c0 .122-.139.217-.314.217-.2.019-.338-.079-.338-.217 0-.121.138-.218.314-.218.181-.019.338.079.338.218m-1.88-.272c-.043.12.078.26.26.296.157.06.338 0 .374-.122.037-.12-.079-.26-.26-.314-.157-.042-.332.019-.375.14m2.672-.103c-.175.042-.296.157-.277.296.018.122.175.2.356.157.175-.042.296-.157.278-.278-.018-.114-.182-.193-.357-.175m3.98-23.178C7.417 1.38 1 7.75 1 16.138c0 6.708 4.222 12.448 10.252 14.468.774.14 1.047-.339 1.047-.732 0-.375-.019-2.444-.019-3.713 0 0-4.234.906-5.122-1.803 0 0-.69-1.76-1.682-2.213 0 0-1.385-.95.096-.932 0 0 1.507.122 2.335 1.56 1.325 2.335 3.544 1.664 4.41 1.264.138-.967.532-1.638.967-2.038-3.38-.375-6.792-.865-6.792-6.683 0-1.663.46-2.499 1.428-3.563-.158-.393-.672-2.013.156-4.106 1.265-.395 4.174 1.631 4.174 1.631a14.2 14.2 0 0 1 3.799-.513c1.288 0 2.587.175 3.798.513 0 0 2.909-2.031 4.173-1.633.83 2.1.314 3.715.158 4.107.967 1.071 1.56 1.905 1.56 3.563 0 5.837-3.563 6.303-6.943 6.683.556.478 1.027 1.385 1.027 2.806 0 2.04-.018 4.561-.018 5.057 0 .394.279.872 1.047.731C26.899 28.587 31 22.847 31 16.14c0-8.39-6.805-14.76-15.194-14.76M6.879 22.24c-.079.061-.06.2.042.314.097.098.236.14.315.061.078-.06.06-.2-.043-.314-.096-.097-.235-.14-.314-.06m-.653-.49c-.043.079.018.176.14.236.096.061.217.042.259-.042.042-.079-.019-.175-.139-.236-.122-.036-.218-.018-.26.043zm1.959 2.153c-.097.079-.06.26.079.375.14.14.315.158.394.061.078-.079.042-.26-.08-.375-.132-.14-.314-.157-.393-.06m-.69-.889c-.096.06-.096.218 0 .357.098.14.26.2.34.14.097-.08.097-.237 0-.376-.085-.138-.242-.198-.34-.12"/>
</svg>
