<svg xmlns="http://www.w3.org/2000/svg" fill="none" viewBox="0 0 32 32">
  <path fill="#00DC82" d="M17.92 26.663h11.84c.378 0 .74-.132 1.067-.32.327-.187.664-.422.853-.746.189-.325.32-.693.32-1.067 0-.375-.13-.742-.32-1.067l-8-13.76a1.95 1.95 0 0 0-.747-.746 2.6 2.6 0 0 0-1.173-.32c-.378 0-.74.133-1.067.32a1.95 1.95 0 0 0-.746.746l-2.027 3.52-4.053-6.827c-.19-.324-.42-.665-.747-.853s-.689-.213-1.067-.213-.74.026-1.066.213a2.5 2.5 0 0 0-.854.853L.213 23.464C.024 23.788 0 24.156 0 24.53s.024.742.213 1.067c.19.324.526.56.854.746.327.188.689.32 1.066.32H9.6c2.959 0 5.112-1.327 6.613-3.84l3.627-6.293 1.92-3.307 5.867 10.027H19.84zM9.493 23.25H4.267l7.786-13.44L16 16.53l-2.614 4.557c-.997 1.63-2.134 2.163-3.893 2.163"/>
</svg>
