<svg xmlns="http://www.w3.org/2000/svg" fill="none" viewBox="0 0 32 32">
  <path fill="#F03E2F" d="M27 2H5a3 3 0 0 0-3 3v22a3 3 0 0 0 3 3h22a3 3 0 0 0 3-3V5a3 3 0 0 0-3-3"/>
  <path fill="#fff" d="M10.62 9.25c0 2.41 1.52 3.84 4.54 4.6l3.21.73c2.87.64 4.61 2.25 4.61 4.87a4.9 4.9 0 0 1-1.07 3.15c0-2.61-1.37-4.02-4.69-4.87l-3.15-.7c-2.52-.57-4.47-1.89-4.47-4.73a4.9 4.9 0 0 1 1.02-3.05"/>
  <path fill="#fff" fill-opacity=".702" d="M19.94 18.8c1.37.87 1.97 2.07 1.97 3.8-1.13 1.42-3.12 2.22-5.46 2.22-3.94 0-6.7-1.9-7.3-5.21h3.78c.48 1.52 1.77 2.22 3.5 2.22 2.1 0 3.49-1.1 3.52-3.03m-7.36-5.98a3.99 3.99 0 0 1-1.97-3.57c1.1-1.4 3-2.27 5.32-2.27 4 0 6.33 2.08 6.901 5h-3.64c-.4-1.15-1.4-2.05-3.23-2.05-1.96 0-3.3 1.12-3.37 2.9"/>
</svg>
