<svg xmlns="http://www.w3.org/2000/svg" fill="none" viewBox="0 0 32 32">
  <path fill="#000" d="M29.465 18.758c-.163-.493-.59-.836-1.14-.919-.26-.039-.559-.022-.911.05a8 8 0 0 1-1.403.185c1.256-2.12 2.277-4.537 2.864-6.812.95-3.68.443-5.355-.15-6.114-1.571-2.006-3.862-3.084-6.627-3.117a11.7 11.7 0 0 0-3.444.482 13 13 0 0 0-2.014-.184c-1.33-.021-2.504.269-3.508.864a16 16 0 0 0-2.478-.622c-2.423-.397-4.375-.087-5.804.922C3.121 4.714 2.32 6.837 2.468 9.8c.047.941.573 3.805 1.402 6.52.477 1.562.985 2.858 1.51 3.854.745 1.412 1.543 2.244 2.438 2.542.502.168 1.414.285 2.373-.514.121.147.283.293.498.43.274.172.608.312.942.396 1.203.3 2.33.225 3.29-.196l.015.475q.009.346.02.663c.058 1.419.154 2.521.44 3.293.016.043.037.107.06.176.142.437.38 1.168.987 1.74.629.594 1.389.776 2.085.776.35 0 .682-.046.975-.109 1.041-.223 2.224-.563 3.08-1.782.809-1.151 1.202-2.886 1.273-5.62l.026-.221.017-.145.19.017.05.003c1.06.049 2.358-.176 3.154-.546.63-.292 2.647-1.357 2.172-2.795"/>
  <path fill="#336791" d="M27.651 19.038c-3.154.65-3.37-.417-3.37-.417 3.33-4.942 4.722-11.215 3.52-12.75-3.277-4.188-8.951-2.207-9.046-2.156l-.03.006a11.3 11.3 0 0 0-2.105-.22c-1.427-.023-2.51.375-3.331.998 0 0-10.121-4.17-9.65 5.244.1 2.002 2.87 15.153 6.174 11.18 1.208-1.452 2.375-2.68 2.375-2.68a3.06 3.06 0 0 0 2 .511l.057-.048c-.018.18-.01.357.023.566-.852.95-.601 1.118-2.303 1.468-1.722.355-.71.987-.05 1.152.8.2 2.653.483 3.904-1.269l-.05.2c.334.267.568 1.738.529 3.071-.04 1.333-.065 2.248.197 2.963.263.715.525 2.323 2.762 1.844 1.87-.4 2.838-1.439 2.973-3.17.095-1.231.312-1.05.325-2.15l.174-.52c.2-1.67.032-2.208 1.183-1.957l.28.024c.848.039 1.957-.136 2.608-.439 1.402-.65 2.233-1.737.851-1.451"/>
  <path fill="#fff" d="M13.882 10.638c-.285-.04-.542-.003-.672.096a.25.25 0 0 0-.102.164c-.017.117.065.247.116.313.143.19.351.32.557.348q.045.007.09.006c.344 0 .657-.268.684-.465.035-.248-.325-.413-.673-.462m9.416.008c-.027-.194-.373-.25-.7-.204-.328.046-.646.194-.62.388.022.152.295.41.619.41l.083-.006a.8.8 0 0 0 .45-.246c.114-.12.18-.255.168-.342"/>
  <path fill="#fff" d="M28.701 18.964c-.12-.364-.507-.481-1.15-.348-1.91.394-2.594.12-2.819-.044 1.485-2.262 2.706-4.995 3.365-7.545.312-1.208.484-2.33.498-3.245.016-1.003-.155-1.74-.508-2.191-1.421-1.817-3.508-2.79-6.033-2.818-1.736-.02-3.203.425-3.487.55a8.7 8.7 0 0 0-1.962-.252c-1.304-.021-2.43.291-3.363.927-.405-.15-1.452-.51-2.733-.717-2.213-.356-3.972-.086-5.228.803-1.498 1.062-2.19 2.959-2.055 5.639.045.901.559 3.675 1.37 6.331 1.067 3.496 2.227 5.476 3.447 5.883.143.047.308.08.49.08.445 0 .99-.2 1.559-.883a56 56 0 0 1 2.148-2.431c.48.257 1.007.401 1.547.415q0 .022.003.043-.139.166-.272.336c-.374.475-.452.573-1.654.82-.342.072-1.25.259-1.264.895-.014.696 1.074.989 1.198 1.02a5 5 0 0 0 1.245.161c.966 0 1.815-.317 2.494-.931-.02 2.48.083 4.924.38 5.669.245.61.84 2.1 2.723 2.099q.413.002.914-.104c1.965-.42 2.818-1.29 3.148-3.203.176-1.023.48-3.466.622-4.776.3.094.688.137 1.106.137.874 0 1.88-.186 2.513-.48.71-.329 1.99-1.138 1.758-1.84m-4.678-8.854c-.006.387-.06.738-.116 1.104-.06.394-.124.802-.14 1.297-.015.481.045.982.103 1.466.118.978.238 1.985-.228 2.978a4 4 0 0 1-.207-.425 8 8 0 0 0-.359-.68c-.678-1.216-2.268-4.067-1.454-5.23.242-.346.857-.702 2.401-.51m-1.871-6.553c2.262.05 4.052.896 5.32 2.515.971 1.242-.099 6.894-3.197 11.77l-.094-.119-.04-.049c.801-1.322.645-2.63.505-3.79-.057-.476-.11-.926-.097-1.348.014-.448.073-.832.13-1.203.07-.457.142-.93.123-1.489a.6.6 0 0 0 .013-.21c-.05-.534-.662-2.136-1.907-3.585-.68-.793-1.674-1.68-3.03-2.279a10.2 10.2 0 0 1 2.274-.213M9.49 20.635c-.625.752-1.057.608-1.2.56-.925-.308-2-2.266-2.947-5.369-.82-2.685-1.299-5.385-1.337-6.142-.12-2.395.461-4.064 1.726-4.96 2.058-1.46 5.441-.587 6.8-.144l-.058.057c-2.231 2.253-2.178 6.103-2.173 6.338 0 .091.008.22.018.396.038.648.11 1.853-.081 3.218-.178 1.268.213 2.51 1.072 3.405q.132.139.278.262a57 57 0 0 0-2.098 2.378m2.385-3.182c-.693-.722-1.007-1.726-.863-2.756.201-1.442.127-2.697.087-3.372l-.013-.242c.326-.29 1.836-1.098 2.913-.852.492.113.791.448.916 1.023.644 2.981.085 4.223-.364 5.222-.093.205-.18.4-.255.6l-.058.156c-.146.393-.283.759-.367 1.106-.736-.002-1.452-.317-1.996-.885m.113 4.02a1.7 1.7 0 0 1-.522-.224c.095-.045.263-.105.556-.166 1.414-.29 1.633-.496 2.11-1.102a9 9 0 0 1 .405-.488c.256-.287.373-.238.585-.15.172.071.34.287.407.524.032.112.068.324-.05.49-.996 1.395-2.448 1.377-3.491 1.116m7.403 6.889c-1.731.37-2.344-.512-2.747-1.522-.261-.651-.39-3.59-.298-6.835a.4.4 0 0 0-.017-.124 2 2 0 0 0-.049-.23c-.135-.471-.464-.866-.859-1.03-.157-.065-.445-.184-.791-.096a10 10 0 0 1 .34-1.02l.059-.156c.065-.177.148-.36.235-.553.47-1.044 1.114-2.475.415-5.707-.262-1.21-1.136-1.802-2.461-1.664-.795.082-1.522.403-1.884.586a6 6 0 0 0-.216.115c.101-1.22.483-3.5 1.913-4.941.9-.908 2.1-1.357 3.56-1.332 2.88.047 4.725 1.524 5.767 2.755.897 1.06 1.383 2.13 1.578 2.706-1.46-.149-2.452.14-2.954.858-1.095 1.564.598 4.6 1.412 6.06.149.267.278.498.318.596.265.642.608 1.07.858 1.384.077.096.152.189.208.27-.441.127-1.235.422-1.163 1.893-.058.738-.473 4.194-.684 5.415-.278 1.613-.871 2.214-2.54 2.572m7.223-8.266c-.452.21-1.208.367-1.927.4-.793.038-1.197-.088-1.292-.166-.044-.916.297-1.012.658-1.114q.085-.022.166-.05.05.04.109.08c.638.421 1.775.467 3.38.135l.018-.003a4.3 4.3 0 0 1-1.112.718"/>
</svg>
