<svg xmlns="http://www.w3.org/2000/svg" fill="none" viewBox="0 0 32 32">
  <mask id="logo-redis-a" width="30" height="26" x="1" y="3" maskUnits="userSpaceOnUse" style="mask-type:luminance">
    <path fill="#fff" d="M31 3.15H1v25.71h30z"/>
  </mask>
  <g mask="url(#logo-redis-a)">
    <path fill="#A32422" d="M29.82 22.97c-1.598.837-9.892 4.248-11.679 5.185-1.786.936-2.743.91-4.14.241-1.398-.668-10.194-4.245-11.788-5.007-.803-.377-1.213-.699-1.213-1v-3.034s11.49-2.494 13.345-3.166c1.854-.672 2.495-.688 4.07-.11 1.576.577 11.022 2.282 12.58 2.847v2.992c0 .311-.358.614-1.175 1.05z"/>
    <path fill="#DC382C" d="M29.82 19.951c-1.598.832-9.892 4.243-11.679 5.163-1.786.92-2.743.912-4.14.246-1.398-.666-10.194-4.243-11.788-5-1.594-.755-1.625-1.284-.061-1.895 1.563-.61 10.338-4.046 12.193-4.722 1.854-.676 2.495-.69 4.07-.11 1.576.579 9.836 3.86 11.387 4.43 1.55.573 1.622 1.042.018 1.872z"/>
    <path fill="#A32422" d="M29.82 18.029c-1.598.834-9.892 4.243-11.679 5.163-1.786.92-2.735.912-4.132.242-1.398-.67-10.202-4.227-11.796-4.987C1.41 18.066 1 17.747 1 17.443v-3.024s11.49-2.502 13.345-3.174c1.854-.672 2.495-.69 4.07-.104s11.022 2.274 12.58 2.844v2.99c0 .312-.358.624-1.175 1.054"/>
    <path fill="#DC382C" d="M29.82 14.995c-1.599.836-9.893 4.245-11.68 5.165s-2.743.914-4.14.246-10.193-4.231-11.787-4.993S.59 14.131 2.15 13.52c1.562-.61 10.339-4.054 12.193-4.712s2.496-.699 4.072-.127c1.575.572 9.834 3.88 11.385 4.436 1.551.555 1.623 1.043.019 1.87z"/>
    <path fill="#A32422" d="M29.82 12.9c-1.598.837-9.892 4.248-11.679 5.166-1.786.918-2.735.912-4.132.246-1.398-.666-10.202-4.233-11.796-4.993C1.41 12.942 1 12.62 1 12.317V9.282S12.49 6.79 14.345 6.12c1.854-.67 2.495-.69 4.07-.113 1.576.578 11.018 2.283 12.577 2.852v2.992c.004.315-.355.623-1.172 1.05"/>
    <path fill="#DC382C" d="M29.82 9.87c-1.598.82-9.892 4.252-11.679 5.163-1.786.912-2.743.91-4.14.246-1.398-.663-10.194-4.235-11.788-4.993S.588 9.001 2.152 8.391c1.563-.61 10.338-4.053 12.193-4.72 1.854-.669 2.495-.69 4.07-.111 1.576.577 9.836 3.862 11.387 4.431 1.55.57 1.622 1.043.018 1.873z"/>
  </g>
  <path fill="#fff" d="m16.47 5.561 1.978-.649-.537 1.283 2.015.754-2.596.27-.584 1.401-.939-1.563-3.001-.27 2.241-.808-.674-1.241zm.124 8.182-4.852-2.014 6.95-1.068zM9.868 7.727c2.048 0 3.714.645 3.714 1.434 0 .79-1.67 1.435-3.714 1.435S6.15 9.95 6.15 9.16s1.666-1.434 3.717-1.434"/>
  <path fill="#741113" d="m23.001 7.332 4.112 1.625-4.108 1.624z"/>
  <path fill="#AC2724" d="m23.001 7.332.004 3.25-.446.173-4.11-1.624z"/>
</svg>
