<svg xmlns="http://www.w3.org/2000/svg" fill="none" viewBox="0 0 32 32">
  <path fill="#149ECA" fill-rule="evenodd" d="M14.366 4.865c-2.41-1.737-4.386-2.103-5.604-1.4-1.219.704-1.89 2.597-1.59 5.554q.027.283.068.574a27.4 27.4 0 0 1 4.513-.946A27.4 27.4 0 0 1 14.83 5.21a16 16 0 0 0-.463-.346M16 4.195q-.372-.3-.743-.567C12.761 1.83 10.061.956 8 2.146S5.346 6.11 5.655 9.172q.046.455.12.926-.446.173-.863.36C2.107 11.722 0 13.623 0 16.003s2.107 4.281 4.912 5.544q.417.188.862.36a18 18 0 0 0-.119.927c-.309 3.06.284 5.836 2.345 7.026s4.761.315 7.257-1.483q.37-.267.743-.566.372.3.743.566c2.496 1.798 5.196 2.673 7.257 1.483s2.654-3.966 2.345-7.026q-.046-.455-.12-.927.446-.172.863-.36C29.893 20.283 32 18.382 32 16.002s-2.107-4.28-4.912-5.543a18 18 0 0 0-.862-.36q.072-.473.119-.927c.309-3.06-.284-5.836-2.345-7.026s-4.761-.316-7.257 1.482q-.37.267-.743.566m0 2.009a24 24 0 0 0-2.138 2.245 35 35 0 0 1 4.276 0A24 24 0 0 0 16 6.204m-5.473 4.17a24 24 0 0 0-3.013.73c.212.948.504 1.946.876 2.973a35 35 0 0 1 2.137-3.703m-1.36 5.628a33 33 0 0 1 1.554-3.047 33 33 0 0 1 1.862-2.87A33 33 0 0 1 16 9.906c1.179 0 2.323.062 3.417.177.647.89 1.272 1.85 1.862 2.87a33 33 0 0 1 1.555 3.048 33 33 0 0 1-1.555 3.048 33 33 0 0 1-1.862 2.87 33 33 0 0 1-3.417.177c-1.179 0-2.323-.061-3.417-.177a33 33 0 0 1-1.862-2.87 33 33 0 0 1-1.555-3.048m-1.66 0a27.4 27.4 0 0 1-1.438-4.381q-.272.111-.531.227c-2.71 1.22-4.014 2.747-4.014 4.154s1.304 2.935 4.014 4.154q.259.117.531.228a27.4 27.4 0 0 1 1.438-4.382m.007 4.9c.212-.95.504-1.947.876-2.974a35 35 0 0 0 2.137 3.702 24 24 0 0 1-3.013-.729m-.274 1.51q-.04.29-.069.574c-.298 2.956.372 4.85 1.59 5.553 1.22.703 3.194.338 5.605-1.4q.23-.166.463-.346a27.4 27.4 0 0 1-3.076-3.435 27.4 27.4 0 0 1-4.513-.946m9.93 4.381q.233.18.464.347c2.41 1.737 4.386 2.102 5.604 1.399 1.219-.704 1.89-2.597 1.59-5.553a16 16 0 0 0-.068-.574c-1.373.418-2.893.74-4.513.946a27.4 27.4 0 0 1-3.076 3.435m.968-3.237A24 24 0 0 1 16 25.8a24 24 0 0 1-2.138-2.244 35 35 0 0 0 4.276 0m3.335-1.926a24 24 0 0 0 3.013-.729 24 24 0 0 0-.876-2.973 35 35 0 0 1-2.137 3.702m3.02-5.628a27.4 27.4 0 0 1 1.438 4.382q.272-.111.531-.228c2.71-1.22 4.014-2.747 4.014-4.154s-1.304-2.934-4.014-4.154a16 16 0 0 0-.531-.227 27.4 27.4 0 0 1-1.438 4.381m.267-6.41a27.4 27.4 0 0 0-4.513-.945A27.4 27.4 0 0 0 17.17 5.21q.232-.18.463-.346c2.41-1.737 4.386-2.103 5.604-1.4 1.219.704 1.89 2.597 1.59 5.554q-.027.283-.068.574m-.274 1.511c-.212.95-.504 1.947-.876 2.974a35 35 0 0 0-2.137-3.703c1.075.192 2.085.438 3.013.73m-5.438 4.9a3.048 3.048 0 1 1-6.096 0 3.048 3.048 0 0 1 6.096 0" clip-rule="evenodd"/>
</svg>
