<svg xmlns="http://www.w3.org/2000/svg" fill="none" viewBox="0 0 32 32">
  <path fill="#000" d="M28.594 10.179a5 5 0 0 0-.203-.203c-.069-.065-.134-.138-.203-.203-.068-.064-.133-.137-.202-.202s-.134-.138-.203-.203c-.069-.064-.133-.137-.202-.202s-.134-.138-.203-.203-.133-.137-.202-.202a10.72 10.72 0 0 1 3.204 7.477c0 6.712-6.813 12.172-15.19 12.172-4.69 0-8.887-1.713-11.678-4.399l.202.203.203.203.203.202.202.203.203.202.202.203.203.202c2.787 2.8 7.076 4.602 11.88 4.602 8.377 0 15.19-5.46 15.19-12.152 0-2.86-1.231-5.57-3.407-7.7"/>
  <path fill="#FBF0DF" d="M29.367 16.238c0 6.161-6.347 11.156-14.177 11.156S1.013 22.399 1.013 16.238c0-3.82 2.43-7.194 6.165-9.195 3.734-2 6.06-4.05 8.012-4.05s3.621 1.673 8.012 4.05c3.735 2.001 6.165 5.376 6.165 9.195"/>
  <path fill="#F6DECE" d="M29.367 16.238a8.8 8.8 0 0 0-.324-2.341c-1.106 13.489-17.56 14.137-24.028 10.102a16.2 16.2 0 0 0 10.175 3.395c7.818 0 14.177-5.003 14.177-11.156"/>
  <path fill="#FFFEFC" d="M9.734 6.302c1.81-1.086 4.216-3.123 6.582-3.127a3.8 3.8 0 0 0-1.126-.182c-.98 0-2.025.506-3.342 1.268-.458.267-.932.563-1.434.87a66 66 0 0 1-3.24 1.904c-3.856 2.086-6.161 5.525-6.161 9.203v.482c2.454-8.672 6.914-9.332 8.72-10.418"/>
  <path fill="#CCBEA7" fill-rule="evenodd" d="M14.023 4.017a6.65 6.65 0 0 1-2.28 5.052c-.114.1-.024.295.121.239 1.365-.531 3.208-2.119 2.43-5.323-.032-.182-.27-.134-.27.032m.92 0a6.58 6.58 0 0 1 .652 5.457c-.049.141.125.263.223.145.887-1.134 1.66-3.386-.656-5.816-.118-.106-.3.056-.22.198zm1.118-.068a6.65 6.65 0 0 1 2.774 4.763.133.133 0 0 0 .264.045c.372-1.414.162-3.824-2.905-5.076-.162-.065-.267.154-.133.251zM8.583 8.16a6.86 6.86 0 0 0 4.241-3.645c.073-.146.304-.09.268.073-.701 3.24-3.046 3.917-4.505 3.827-.154.004-.15-.21-.004-.255" clip-rule="evenodd"/>
  <path fill="#000" d="M15.19 28.41C6.813 28.41 0 22.95 0 16.238c0-4.05 2.503-7.83 6.696-10.094 1.215-.648 2.256-1.3 3.184-1.871.51-.316.992-.612 1.458-.887 1.422-.843 2.637-1.406 3.852-1.406s2.276.486 3.605 1.272c.405.23.81.482 1.243.757 1.01.624 2.147 1.329 3.646 2.135 4.192 2.264 6.696 6.04 6.696 10.094 0 6.712-6.813 12.172-15.19 12.172m0-25.417c-.98 0-2.025.506-3.342 1.267-.458.268-.932.564-1.434.871a66 66 0 0 1-3.24 1.904c-3.857 2.086-6.161 5.525-6.161 9.203 0 6.153 6.36 11.16 14.177 11.16 7.818 0 14.177-5.007 14.177-11.16 0-3.678-2.305-7.117-6.165-9.195-1.531-.81-2.726-1.571-3.694-2.17q-.663-.41-1.215-.746c-1.228-.73-2.123-1.134-3.103-1.134"/>
  <path fill="#B71422" d="M18.046 19.195a3.6 3.6 0 0 1-1.183 1.908c-.44.427-1.01.695-1.62.762a2.77 2.77 0 0 1-1.673-.762 3.6 3.6 0 0 1-1.167-1.908.292.292 0 0 1 .324-.328h4.999a.292.292 0 0 1 .32.328"/>
  <path fill="#FF6164" d="M13.57 21.136a2.8 2.8 0 0 0 1.668.77 2.8 2.8 0 0 0 1.665-.77q.218-.203.405-.434a2.77 2.77 0 0 0-1.985-.936 2.49 2.49 0 0 0-2.025 1.126c.093.085.174.166.271.244"/>
  <path fill="#000" d="M13.634 20.815a2.17 2.17 0 0 1 1.698-.842 2.43 2.43 0 0 1 1.62.684 6 6 0 0 0 .267-.311 2.84 2.84 0 0 0-1.908-.782 2.58 2.58 0 0 0-1.98.956q.143.156.303.295"/>
  <path fill="#000" d="M15.226 22.108a3 3 0 0 1-1.802-.81 3.86 3.86 0 0 1-1.26-2.046.49.49 0 0 1 .105-.405.57.57 0 0 1 .458-.207h4.999a.58.58 0 0 1 .457.207.48.48 0 0 1 .102.405 3.86 3.86 0 0 1-1.26 2.045 3 3 0 0 1-1.799.81m-2.499-2.998c-.065 0-.08.028-.085.037a3.36 3.36 0 0 0 1.106 1.77c.4.394.92.643 1.478.708a2.54 2.54 0 0 0 1.479-.7 3.36 3.36 0 0 0 1.102-1.77.09.09 0 0 0-.081-.037z"/>
  <path fill="#FEBBD0" d="M21.355 19.447c1.309 0 2.37-.624 2.37-1.394s-1.061-1.393-2.37-1.393-2.37.624-2.37 1.393c0 .77 1.061 1.393 2.37 1.393m-12.261.001c1.308 0 2.37-.624 2.37-1.394s-1.062-1.393-2.37-1.393-2.37.624-2.37 1.393c0 .77 1.061 1.393 2.37 1.393"/>
  <path fill="#000" fill-rule="evenodd" d="M10.208 17.494a2.232 2.232 0 1 0 .008-4.463 2.232 2.232 0 0 0-.008 4.463m10.033 0a2.232 2.232 0 1 0 .032-4.464 2.232 2.232 0 0 0-.032 4.464" clip-rule="evenodd"/>
  <path fill="#fff" fill-rule="evenodd" d="M9.519 15.404a.839.839 0 1 0 .008-1.678.839.839 0 0 0-.008 1.678m10.033 0a.84.84 0 1 0-.008 0z" clip-rule="evenodd"/>
</svg>
