<svg xmlns="http://www.w3.org/2000/svg" fill="none" viewBox="0 0 32 32">
  <g clip-path="url(#logo-git-a)">
    <path fill="#F1502F" d="M31.396 14.575 17.429.603a2.06 2.06 0 0 0-2.915 0L11.61 3.506l3.68 3.68c1.932-.653 3.762 1.197 3.099 3.12l3.547 3.547c2.445-.843 4.37 2.214 2.534 4.05-1.892 1.892-5.016-.205-4-2.668l-3.311-3.306v8.704c1.807.895 1.59 2.989.649 3.927a2.453 2.453 0 0 1-3.469 0c-1.255-1.256-.79-3.35.805-3.999v-8.786c-1.486-.608-1.758-2.196-1.332-3.214l-3.628-3.633-9.58 9.582a2.06 2.06 0 0 0 0 2.915l13.973 13.972a2.06 2.06 0 0 0 2.914 0L31.396 17.49a2.06 2.06 0 0 0 0-2.916"/>
  </g>
  <defs>
    <clipPath id="logo-git-a">
      <path fill="#fff" d="M0 0h32v32H0z"/>
    </clipPath>
  </defs>
</svg>
