<svg xmlns="http://www.w3.org/2000/svg" fill="none" viewBox="0 0 32 32">
  <path fill="#764ABC" d="M21.787 21.65a2.14 2.14 0 0 0 1.909-2.214 2.144 2.144 0 0 0-2.138-2.062h-.077a2.136 2.136 0 0 0-2.061 2.214c.038.573.267 1.07.61 1.413-1.297 2.558-3.282 4.428-6.26 5.993-2.024 1.07-4.123 1.451-6.223 1.184-1.718-.23-3.054-.993-3.894-2.252-1.222-1.871-1.336-3.894-.305-5.918.725-1.45 1.87-2.52 2.596-3.054a21 21 0 0 1-.497-1.947c-5.535 4.009-4.963 9.43-3.283 11.987 1.26 1.91 3.818 3.093 6.643 3.093.763 0 1.527-.077 2.29-.267 4.887-.955 8.59-3.856 10.69-8.17"/>
  <path fill="#764ABC" d="M28.506 16.916c-2.901-3.398-7.177-5.268-12.064-5.268h-.61a2.1 2.1 0 0 0-1.871-1.146h-.077a2.136 2.136 0 0 0-2.061 2.215 2.144 2.144 0 0 0 2.138 2.061h.076a2.15 2.15 0 0 0 1.87-1.298h.688c2.901 0 5.65.84 8.131 2.482 1.91 1.26 3.284 2.901 4.047 4.886.65 1.604.61 3.169-.076 4.505-1.07 2.023-2.863 3.13-5.23 3.13-1.527 0-2.978-.458-3.742-.801-.42.382-1.183.992-1.718 1.374 1.642.764 3.322 1.183 4.925 1.183 3.665 0 6.376-2.023 7.406-4.046 1.107-2.214 1.031-6.032-1.832-9.277"/>
  <path fill="#764ABC" d="M9.112 22.299a2.144 2.144 0 0 0 2.138 2.061h.076a2.136 2.136 0 0 0 2.062-2.214 2.144 2.144 0 0 0-2.138-2.061h-.076a.65.65 0 0 0-.267.038c-1.566-2.596-2.215-5.421-1.986-8.475.153-2.29.917-4.276 2.253-5.918 1.107-1.412 3.245-2.1 4.696-2.138 4.046-.076 5.764 4.963 5.879 6.987.496.114 1.336.381 1.909.572-.459-6.184-4.276-9.391-7.941-9.391-3.436 0-6.605 2.481-7.865 6.146-1.756 4.887-.61 9.583 1.528 13.286-.191.267-.306.687-.268 1.107"/>
</svg>
