<svg xmlns="http://www.w3.org/2000/svg" fill="none" viewBox="0 0 32 32">
  <path fill="#fff" d="M11.572 27.256c-1.446-1.322-1.868-4.098-1.266-6.11 1.045 1.268 2.492 1.67 3.99 1.897 2.314.35 4.587.219 6.736-.839.246-.12.473-.282.742-.445a3.96 3.96 0 0 1 .184 1.777c-.172 1.464-.9 2.596-2.06 3.453-.463.343-.953.65-1.432.973-1.47.994-1.868 2.16-1.316 3.854l.055.184a3.87 3.87 0 0 1-1.717-1.469 4.13 4.13 0 0 1-.663-2.242c-.005-.396-.005-.795-.058-1.184-.13-.951-.576-1.377-1.417-1.401-.863-.025-1.545.508-1.726 1.348-.014.064-.034.128-.054.203z"/>
  <path fill="url(#logo-astro-a)" d="M11.572 27.256c-1.446-1.322-1.868-4.098-1.266-6.11 1.045 1.268 2.492 1.67 3.99 1.897 2.314.35 4.587.219 6.736-.839.246-.12.473-.282.742-.445a3.96 3.96 0 0 1 .184 1.777c-.172 1.464-.9 2.596-2.06 3.453-.463.343-.953.65-1.432.973-1.47.994-1.868 2.16-1.316 3.854l.055.184a3.87 3.87 0 0 1-1.717-1.469 4.13 4.13 0 0 1-.663-2.242c-.005-.396-.005-.795-.058-1.184-.13-.951-.576-1.377-1.417-1.401-.863-.025-1.545.508-1.726 1.348-.014.064-.034.128-.054.203z"/>
  <path class="fill-black dark:fill-white" d="M3.32 20.81s4.28-2.084 8.574-2.084L15.13 8.709c.121-.484.475-.814.875-.814.399 0 .753.33.874.814l3.237 10.017c5.084 0 8.573 2.085 8.573 2.085L21.404.963C21.195.377 20.843 0 20.368 0h-8.726c-.475 0-.813.377-1.036.963z"/>
  <defs>
    <linearGradient id="logo-astro-a" x1="10.041" x2="23.999" y1="32" y2="25.405" gradientUnits="userSpaceOnUse">
      <stop stop-color="#D83333"/>
      <stop offset="1" stop-color="#F041FF"/>
    </linearGradient>
  </defs>
</svg>
