<svg xmlns="http://www.w3.org/2000/svg" fill="none" viewBox="0 0 32 32">
  <path fill="#38BDF8" fill-rule="evenodd" d="M16 6.46q-6.4 0-8 6.362 2.4-3.18 5.6-2.386c1.217.302 2.087 1.18 3.05 2.152 1.569 1.583 3.385 3.414 7.35 3.414q6.4 0 8-6.361-2.4 3.18-5.6 2.385c-1.217-.302-2.088-1.18-3.05-2.151C21.78 8.29 19.966 6.46 16 6.46m-8 9.542q-6.4 0-8 6.362 2.4-3.18 5.6-2.386c1.217.303 2.088 1.18 3.05 2.152 1.569 1.583 3.384 3.415 7.35 3.415q6.4 0 8-6.362-2.4 3.181-5.6 2.386c-1.217-.303-2.087-1.18-3.05-2.152-1.569-1.582-3.385-3.415-7.35-3.415" clip-rule="evenodd"/>
</svg>
