<svg xmlns="http://www.w3.org/2000/svg" fill="none" viewBox="0 0 32 32">
  <path fill="#FCA311" d="M27.786 1H4.214A3.215 3.215 0 0 0 1 4.214v23.572A3.215 3.215 0 0 0 4.214 31h23.572A3.216 3.216 0 0 0 31 27.786V4.214A3.215 3.215 0 0 0 27.786 1m-10.46 23.397c0 2.92-1.714 4.253-4.212 4.253-2.257 0-3.562-1.165-4.232-2.579l2.297-1.385c.441.782.843 1.446 1.814 1.446.925 0 1.514-.362 1.514-1.775v-9.583h2.82zm6.67 4.253c-2.619 0-4.313-1.246-5.136-2.88l2.297-1.326c.602.985 1.392 1.715 2.779 1.715 1.165 0 1.915-.583 1.915-1.394 0-.964-.764-1.306-2.056-1.875l-.704-.3c-2.035-.865-3.38-1.956-3.38-4.253 0-2.116 1.613-3.723 4.124-3.723 1.794 0 3.08.623 4.004 2.257l-2.197 1.406c-.481-.864-1.004-1.206-1.814-1.206-.824 0-1.346.522-1.346 1.205 0 .845.522 1.186 1.735 1.715l.703.302c2.397 1.023 3.743 2.075 3.743 4.433 0 2.531-1.995 3.923-4.668 3.923z"/>
</svg>
