<svg xmlns="http://www.w3.org/2000/svg" fill="none" viewBox="0 0 32 32">
  <g clip-path="url(#logo-fastify-a)">
    <path class="fill-black dark:fill-white" d="M30.988 8.65 32 6.043l-.042-.167-9.971 2.628c1.063-1.543.698-2.774.698-2.774s-3.18 2.034-5.59 1.982-3.181-.7-6.874.48c-3.692 1.178-4.735 4.787-5.81 5.57C3.349 14.532 0 17.108 0 17.108l3.024-.97s-.855.814-2.618 3.182v.01c.282.396 1.523 2.034 2.754 1.68a4 4 0 0 0 .47-.199c.552.313 1.293.615 2.096.699 0 0-.543-.626-1.002-1.356l.376-.24-.063.042 1.158.417-.125-1.085h.01l1.127.417-.136-.99.428-.209 1.178-4.464 4.882-3.338-.386.98c-.991 2.43-2.847 3.005-2.847 3.005l-.772.302c-.584.678-.824.845-1.023 3.14.47-.126.908-.147 1.315-.042 2.086.563 2.805 3.077 2.242 3.776-.135.166-.47.469-.897.813h-.845l-.01.689-.084.073h-.865l-.01.667-.23.167c-.803.02-1.836-.688-1.836-.688.01.646.542 1.637.542 1.637l.094-.052-.083.063s2.17 1.439 3.536.907c1.21-.48 4.35-2.952 7.061-4.12l8.198-2.17 1.085-2.795-6.248 1.648V16.18l7.333-1.93 1.084-2.805-8.417 2.221v-2.513zm-14.884 5.33 1.95-.51.021.093-.605 1.575-2.013.532zm.667 3.37-2.013.531.657-1.69 1.94-.51.032.093zm2.629-.564-2.013.532.657-1.69 1.94-.51.031.093z"/>
  </g>
  <defs>
    <clipPath id="logo-fastify-a">
      <path fill="#fff" d="M0 0h32v32H0z"/>
    </clipPath>
  </defs>
</svg>
