<svg xmlns="http://www.w3.org/2000/svg" viewBox="0 0 20 20">
  <path d="M13.9 11.26q-.163-.019-.326-.042c.11.013.218.03.326.042M10 9.06c-.85-1.65-3.16-4.727-5.31-6.244-2.06-1.455-2.844-1.204-3.362-.97-.596.27-.703 1.185-.703 1.722s.296 4.414.488 5.062c.635 2.139 2.9 2.862 4.987 2.627l.326-.045a10 10 0 0 1-.326.045c-3.056.456-5.771 1.57-2.21 5.53 3.916 4.057 5.365-.868 6.11-3.365.745 2.497 1.602 7.243 6.042 3.366 3.333-3.366.914-5.078-2.142-5.53q-.163-.02-.326-.043c.11.013.218.03.326.042 2.086.231 4.349-.491 4.987-2.627.192-.648.488-4.521.488-5.062 0-.54-.107-1.455-.703-1.722-.514-.23-1.302-.485-3.36.97C13.162 4.333 10.85 7.41 10 9.06"/>
</svg>
