<svg xmlns="http://www.w3.org/2000/svg" viewBox="0 0 24 24">
  <path d="M12 16a4 4 0 1 0 0-8 4 4 0 0 0 0 8"/>
  <path fill-rule="evenodd" d="M12 9a3 3 0 1 0 0 6 3 3 0 0 0 0-6m-5 3a5 5 0 1 1 10 0 5 5 0 0 1-10 0m5-11a1 1 0 0 1 1 1v2a1 1 0 0 1-2 0V2a1 1 0 0 1 1-1m0 18a1 1 0 0 1 1 1v2a1 1 0 0 1-2 0v-2a1 1 0 0 1 1-1M4.223 4.223a1 1 0 0 1 1.414 0l1.41 1.41a1 1 0 0 1-1.414 1.414l-1.41-1.41a1 1 0 0 1 0-1.414m12.73 12.73a1 1 0 0 1 1.414 0l1.41 1.41a1 1 0 0 1-1.414 1.414l-1.41-1.41a1 1 0 0 1 0-1.414M1 12a1 1 0 0 1 1-1h2a1 1 0 0 1 0 2H2a1 1 0 0 1-1-1m18 0a1 1 0 0 1 1-1h2a1 1 0 0 1 0 2h-2a1 1 0 0 1-1-1M7.047 16.953a1 1 0 0 1 0 1.414l-1.41 1.41a1 1 0 0 1-1.414-1.414l1.41-1.41a1 1 0 0 1 1.414 0m12.73-12.73a1 1 0 0 1 0 1.414l-1.41 1.41a1 1 0 1 1-1.414-1.414l1.41-1.41a1 1 0 0 1 1.414 0" clip-rule="evenodd"/>
</svg>
