<svg xmlns="http://www.w3.org/2000/svg" viewBox="0 0 24 24">
  <path d="M12.005 6.872A5.12 5.12 0 0 0 6.877 12a5.12 5.12 0 0 0 5.128 5.128A5.12 5.12 0 0 0 17.132 12a5.12 5.12 0 0 0-5.128-5.128m0 8.462A3.34 3.34 0 0 1 8.67 12a3.337 3.337 0 0 1 3.334-3.334A3.337 3.337 0 0 1 15.338 12a3.34 3.34 0 0 1-3.333 3.334m6.533-8.671c0 .664-.535 1.196-1.196 1.196a1.196 1.196 0 1 1 1.196-1.196m3.396 1.213c-.076-1.602-.442-3.02-1.615-4.19-1.17-1.17-2.589-1.535-4.19-1.616-1.652-.093-6.601-.093-8.253 0-1.597.076-3.016.442-4.19 1.611S2.15 6.27 2.07 7.871c-.093 1.652-.093 6.601 0 8.253.076 1.602.442 3.02 1.616 4.19s2.588 1.535 4.19 1.616c1.652.093 6.6.093 8.252 0 1.602-.076 3.021-.442 4.19-1.616 1.17-1.17 1.536-2.588 1.616-4.19.094-1.652.094-6.596 0-8.248m-2.133 10.02a3.38 3.38 0 0 1-1.901 1.9c-1.317.523-4.44.402-5.895.402s-4.584.116-5.896-.401a3.38 3.38 0 0 1-1.901-1.902c-.522-1.316-.402-4.44-.402-5.895s-.116-4.583.402-5.895a3.38 3.38 0 0 1 1.901-1.902c1.317-.522 4.44-.401 5.896-.401 1.454 0 4.583-.116 5.895.401a3.38 3.38 0 0 1 1.9 1.903c.522 1.316.402 4.44.402 5.895s.12 4.583-.402 5.895"/>
</svg>
