<svg xmlns="http://www.w3.org/2000/svg" viewBox="0 0 24 24">
  <path d="M1.345 3.75A2.753 2.753 0 0 1 4.095 1h6.875v5.5c0 .76.615 1.375 1.375 1.375h5.5v6.188H8.908a2.753 2.753 0 0 0-2.75 2.75V23H4.095a2.753 2.753 0 0 1-2.75-2.75zm16.5 2.75h-5.5V1zm-8.937 9.625h1.375a2.41 2.41 0 0 1 2.406 2.406 2.41 2.41 0 0 1-2.406 2.407h-.688v1.375a.69.69 0 0 1-.687.687.69.69 0 0 1-.688-.687v-5.5a.69.69 0 0 1 .688-.688m1.375 3.438a1.03 1.03 0 0 0 1.031-1.032c0-.571-.46-1.031-1.031-1.031h-.688v2.063zm4.125-3.438h1.375c1.138 0 2.062.924 2.062 2.063v2.75A2.063 2.063 0 0 1 15.783 23h-1.375a.69.69 0 0 1-.688-.687v-5.5a.69.69 0 0 1 .688-.688m1.375 5.5a.69.69 0 0 0 .687-.687v-2.75a.69.69 0 0 0-.687-.688h-.688v4.125zm3.437-4.812a.69.69 0 0 1 .688-.688h2.062a.69.69 0 0 1 .688.688.69.69 0 0 1-.688.687h-1.375v1.375h1.375a.69.69 0 0 1 .688.688.69.69 0 0 1-.688.687h-1.375v2.063a.69.69 0 0 1-.687.687.69.69 0 0 1-.688-.687z"/>
</svg>
