<svg xmlns="http://www.w3.org/2000/svg" viewBox="0 0 24 24">
  <path d="M5.813 5.469a1.031 1.031 0 1 0 0-2.063 1.031 1.031 0 0 0 0 2.063M9.25 4.437a3.43 3.43 0 0 1-2.062 3.15v3.773a5.47 5.47 0 0 1 2.75-.735h4.124a2.753 2.753 0 0 0 2.75-2.75v-.288A3.437 3.437 0 0 1 18.188 1a3.437 3.437 0 0 1 1.375 6.587v.288a5.5 5.5 0 0 1-5.5 5.5H9.939a2.753 2.753 0 0 0-2.75 2.75v.288A3.437 3.437 0 0 1 5.813 23a3.437 3.437 0 0 1-1.376-6.587V7.587A3.437 3.437 0 0 1 5.813 1c1.9 0 3.438 1.538 3.438 3.437m9.969 0a1.031 1.031 0 1 0-2.063 0 1.031 1.031 0 0 0 2.063 0M5.812 20.595a1.031 1.031 0 1 0 0-2.063 1.031 1.031 0 0 0 0 2.063"/>
</svg>
