<svg xmlns="http://www.w3.org/2000/svg" viewBox="0 0 24 24">
  <path d="M4.5 1.5c-1.655 0-3 1.345-3 3v15c0 1.655 1.345 3 3 3h15c1.655 0 3-1.345 3-3v-15c0-1.655-1.345-3-3-3zm9.694 11.358c.243.394 1.106 1.401 2.414 1.401 1.181 0 2.104-.947 2.104-2.33 0-1.382-.909-2.329-2.104-2.329s-2.105.783-2.414 3.258m-1.252-1.96c.342-1.43 1.533-2.817 3.666-2.817 2.114 0 3.792 1.65 3.792 3.853s-1.683 3.84-3.792 3.84h-.16a3.8 3.8 0 0 1-1.917-.591 5 5 0 0 1-.628-.445l-.6 3.675h-1.73l.91-5.185c-.975-1.364-1.481-2.925-1.697-3.736v2.461c0 2.25-1.43 3.82-3.478 3.82-1.031 0-1.922-.375-2.569-1.092-.628-.693-.975-1.664-.975-2.733v-3.66h1.697l-.014 3.665c0 1.331.68 2.311 1.866 2.311s1.79-.98 1.79-2.31V8.286h2.944c.225.905.51 1.88.9 2.607z"/>
</svg>
