<svg xmlns="http://www.w3.org/2000/svg" viewBox="0 0 24 24">
  <path d="M8.267 18.714c0 .091-.104.164-.236.164-.15.014-.255-.059-.255-.164 0-.09.105-.163.236-.163.137-.014.255.059.255.163m-1.415-.204c-.031.09.06.195.196.223.118.045.255 0 .282-.091s-.059-.196-.195-.237c-.119-.032-.25.014-.283.105m2.011-.078c-.132.032-.223.119-.21.223.015.091.133.15.27.118.131-.031.222-.118.209-.209-.014-.086-.137-.145-.269-.132M11.857 1C5.547 1 .72 5.79.72 12.1c0 5.045 3.176 9.362 7.711 10.882.582.104.787-.255.787-.551 0-.282-.014-1.838-.014-2.793 0 0-3.184.682-3.853-1.356 0 0-.518-1.324-1.264-1.665 0 0-1.042-.714.072-.7 0 0 1.133.09 1.756 1.173.997 1.756 2.666 1.251 3.317.951.104-.728.4-1.233.728-1.533-2.543-.282-5.11-.65-5.11-5.027 0-1.25.347-1.879 1.074-2.68-.118-.295-.505-1.514.119-3.088.95-.296 3.139 1.228 3.139 1.228.91-.255 1.887-.386 2.857-.386.969 0 1.947.131 2.856.386 0 0 2.189-1.528 3.14-1.228.622 1.578.236 2.793.117 3.089.728.805 1.174 1.433 1.174 2.68 0 4.39-2.68 4.74-5.222 5.026.418.36.773 1.042.773 2.11 0 1.534-.014 3.43-.014 3.804 0 .296.21.655.787.55 4.55-1.51 7.634-5.827 7.634-10.872 0-6.31-5.118-11.1-11.427-11.1M5.142 16.69c-.06.045-.046.15.032.237.073.072.177.104.236.045.06-.045.046-.15-.031-.237-.073-.072-.178-.104-.237-.045m-.491-.369c-.032.06.013.132.104.178.073.045.164.032.196-.032.032-.059-.014-.132-.105-.177-.09-.028-.163-.014-.195.032m1.474 1.62c-.073.06-.046.196.059.282.104.105.236.118.295.046.06-.06.032-.196-.059-.282-.1-.105-.236-.119-.295-.046m-.519-.669c-.073.046-.073.164 0 .269.073.104.196.15.255.104.073-.059.073-.177 0-.282-.064-.104-.182-.15-.255-.09"/>
</svg>
