<svg xmlns="http://www.w3.org/2000/svg" viewBox="0 0 24 24">
  <path d="M1 12C1 5.924 5.924 1 12 1s11 4.924 11 11-4.924 11-11 11H2.594a.66.66 0 0 1-.468-1.126l2.097-2.097A10.97 10.97 0 0 1 1 12m15.022-4.4a1.834 1.834 0 1 0 0-3.67c-.885 0-1.624.628-1.796 1.461a2.96 2.96 0 0 0-2.639 2.94v.008c-1.61.069-3.085.529-4.253 1.25a2.56 2.56 0 0 0-1.569-.537 2.57 2.57 0 0 0-2.57 2.57c0 1.031.607 1.916 1.479 2.325.086 2.982 3.334 5.38 7.33 5.38s7.25-2.403 7.33-5.385a2.571 2.571 0 0 0-1.104-4.89 2.55 2.55 0 0 0-1.564.533c-1.177-.73-2.668-1.19-4.296-1.25v-.009c0-1.091.812-1.998 1.864-2.144a1.83 1.83 0 0 0 1.784 1.41zM8.61 11.609c.717 0 1.267.756 1.224 1.689-.043.932-.58 1.271-1.302 1.271-.721 0-1.349-.378-1.306-1.31s.662-1.646 1.38-1.646zm8.168 1.646c.043.932-.588 1.31-1.306 1.31s-1.26-.34-1.302-1.272.507-1.688 1.225-1.688c.717 0 1.34.713 1.379 1.645zm-2.067 2.436a2.93 2.93 0 0 1-2.707 1.8 2.93 2.93 0 0 1-2.707-1.8.204.204 0 0 1 .168-.28 25 25 0 0 1 2.54-.124c.893 0 1.748.043 2.539.125a.204.204 0 0 1 .167.279"/>
</svg>
