<svg xmlns="http://www.w3.org/2000/svg" viewBox="0 0 24 24">
  <path d="M16.68 13.513q-.196-.023-.39-.051c.132.015.26.035.39.05M12 10.872C10.98 8.892 8.207 5.2 5.629 3.38 3.156 1.634 2.215 1.934 1.594 2.216.879 2.54.75 3.638.75 4.282c0 .645.355 5.297.586 6.074.762 2.567 3.48 3.434 5.984 3.153l.39-.055q-.191.03-.39.055c-3.668.547-6.925 1.883-2.652 6.636 4.7 4.868 6.437-1.043 7.332-4.039.895 2.996 1.922 8.692 7.25 4.04 4-4.04 1.098-6.094-2.57-6.637q-.196-.023-.39-.051c.132.015.26.035.39.05 2.504.278 5.218-.59 5.984-3.152.23-.777.586-5.425.586-6.074 0-.648-.129-1.746-.844-2.066-.617-.278-1.562-.582-4.031 1.164C15.793 5.2 13.02 8.89 12 10.872"/>
</svg>
