<svg xmlns="http://www.w3.org/2000/svg" viewBox="0 0 24 24">
  <path d="M11.86 3.063a2.062 2.062 0 1 1 4.126 0 2.062 2.062 0 0 1-4.125 0m2.205 7.85-.82 3.278 2.135 2.136c.387.387.606.91.606 1.457v3.841a1.374 1.374 0 1 1-2.75 0v-3.553l-3.176-3.176a2.74 2.74 0 0 1-.726-2.59l.877-3.61a2.714 2.714 0 0 1 3.296-1.994c.816.206 1.53.705 1.993 1.405l1.22 1.83h1.328v-1.03c0-.572.46-1.032 1.032-1.032.571 0 1.03.46 1.03 1.031V21.97c0 .571-.459 1.031-1.03 1.031a1.03 1.03 0 0 1-1.032-1.031v-9.282h-1.693a2.06 2.06 0 0 1-1.714-.919l-.572-.86zm-6.97 10.364 1.556-5.925q.194.272.434.51l1.8 1.801-1.134 4.31a1.375 1.375 0 1 1-2.66-.7zM9.48 6.41l-1.512 6.04c-.129.52-.64.855-1.169.77l-2.058-.344a1.033 1.033 0 0 1-.825-1.29L4.982 7.66a3.44 3.44 0 0 1 3.317-2.535h.18c.67 0 1.165.632 1.001 1.28z"/>
</svg>
